<svg width="146" height="45" viewBox="0 0 146 45" fill="none" xmlns="http://www.w3.org/2000/svg">
<path d="M21.2234 8.95747L22.294 8.72908C22.5652 8.72908 22.7936 8.78618 22.9507 8.90038C23.1077 9.01457 23.1933 9.12877 23.1933 9.22869C23.1933 9.32861 23.1648 9.48563 23.122 9.6712C23.0791 9.85677 22.6794 11.7696 21.9372 15.381C21.1949 18.9925 20.6525 21.6904 20.3099 23.4604C21.9657 21.205 23.9071 18.4358 26.1196 15.1383C28.3322 11.8409 29.6312 9.65693 30.0023 8.57206C30.1165 8.22947 30.2735 7.97253 30.4591 7.78696C30.6446 7.60139 30.8159 7.4872 30.9587 7.45865C31.1014 7.4301 31.3298 7.40155 31.6296 7.40155C31.9294 7.40155 32.2862 7.47292 32.7002 7.6014C33.1141 7.72987 33.3283 7.94398 33.3283 8.25802C33.3283 8.829 32.4718 10.4991 30.7731 13.2398C29.0744 15.9805 27.1188 18.8925 24.9206 21.9758C22.7223 25.0591 20.8951 27.5001 19.4249 29.2987C19.1679 29.6127 18.8396 29.784 18.4685 29.784C18.0973 29.784 17.6976 29.7127 17.2837 29.5842C16.8697 29.4557 16.6556 29.2273 16.6556 28.8847C16.6556 27.8141 17.5977 22.6468 19.4819 13.4111C17.8689 15.4952 15.9133 18.4072 13.6151 22.1329C11.217 25.987 9.86092 28.3851 9.54688 29.2987C9.37558 29.8554 9.17574 30.1837 8.94735 30.2694C8.79033 30.3407 8.61903 30.3693 8.44773 30.3693L7.2915 30.4977C7.06311 30.4977 6.86326 30.4406 6.66342 30.3122C6.47785 30.1837 6.37793 30.0552 6.37793 29.9125C6.37793 29.5271 6.92037 28.3566 7.99096 26.4152C9.06155 24.4739 10.332 22.3613 11.7737 20.0773C13.2154 17.7934 14.7143 15.5809 16.2845 13.4254C17.8547 11.27 19.068 9.81395 19.9245 9.08595C20.0958 8.92893 20.2956 8.85755 20.524 8.85755L21.2234 8.95747Z" fill="#292F36"/>
<path d="M38.381 18.6358C39.1233 18.6358 39.4944 18.8927 39.4944 19.3923C39.4944 19.6635 39.4373 19.8634 39.3088 19.9918C39.1804 20.1203 38.9092 20.5343 38.4952 21.2623C38.0813 21.976 37.6245 22.8896 37.1248 24.0173C36.6252 25.1307 36.2969 26.0871 36.1542 26.8722C36.1256 26.9721 36.1114 27.1006 36.1114 27.2861C36.1114 27.8286 36.2541 28.0855 36.5539 28.0855C36.8536 28.0855 37.1962 27.9428 37.5959 27.6715C37.9956 27.386 38.3525 27.1006 38.6665 26.7722C38.9805 26.4582 39.2803 26.1299 39.5801 25.8016C39.8798 25.4733 40.0511 25.2734 40.1082 25.2306C40.1653 25.1878 40.251 25.1592 40.3652 25.1592C40.5507 25.1592 40.6649 25.302 40.7078 25.5875C40.7506 25.8729 40.7649 26.1584 40.7649 26.4725C40.7649 26.7865 40.7363 26.9864 40.6792 27.1006C40.3937 27.6573 39.7799 28.3282 38.8093 29.1133C37.8529 29.8984 36.9678 30.2838 36.1827 30.2838C35.3976 30.2838 34.8124 30.0411 34.4555 29.57C34.0987 29.099 33.8988 28.5566 33.8988 27.9856C33.8988 27.4003 33.9987 26.9007 34.1986 26.4582C33.3849 27.5145 32.4571 28.3995 31.415 29.1418C30.3587 29.8698 29.5165 30.241 28.8456 30.241C28.1747 30.241 27.6466 30.0411 27.2183 29.6414C26.6759 29.1418 26.4189 28.4566 26.4189 27.5716C26.4189 26.6866 26.6188 25.8016 27.0185 24.9023C27.4182 24.0173 27.9321 23.1893 28.5744 22.4613C29.2168 21.7191 29.9305 21.0482 30.7013 20.4486C32.3143 19.1782 33.8132 18.5501 35.1835 18.5501C35.7117 18.5501 36.1399 18.6358 36.4682 18.8071C36.7965 18.9783 37.0107 19.2067 37.0963 19.4637C37.3247 19.1068 37.5245 18.8927 37.6958 18.7928C37.8243 18.6786 38.067 18.6358 38.381 18.6358ZM36.4397 20.2631C34.7696 20.2631 33.0423 21.1909 31.258 23.0466C30.6299 23.7175 30.0447 24.5026 29.5023 25.4304C28.9598 26.3583 28.7029 26.9864 28.7029 27.3289C28.7029 27.6715 28.8028 27.8428 29.0027 27.8428C29.2739 27.8428 30.0304 27.3004 31.2866 26.2298C32.5427 25.1592 33.3707 24.3598 33.7703 23.846C34.2271 23.275 35.1121 22.0759 36.4397 20.2631Z" fill="#292F36"/>
<path d="M49.4874 10.8988L50.0869 11.0415C50.1726 11.0415 50.2582 11.0844 50.3153 11.17C50.3867 11.2557 50.4152 11.3413 50.4152 11.4127C50.4152 11.4841 50.3153 11.6982 50.1012 12.0408C49.8871 12.3834 49.6587 12.7688 49.3732 13.197C49.0877 13.6252 48.945 13.8679 48.9307 13.9107C49.6872 13.8536 50.2297 13.8251 50.5437 13.8251C50.8577 13.8251 51.0719 13.8536 51.2003 13.8965C51.3145 13.9393 51.4573 14.0678 51.6 14.2676C51.757 14.4674 51.8855 14.6245 52.014 14.7244C52.1425 14.8243 52.1996 14.9813 52.1996 15.1812C52.1996 15.381 52.0711 15.5666 51.8284 15.695C51.5857 15.8378 51.3145 15.9234 51.029 15.952C48.7594 16.1804 47.5175 16.2946 47.2891 16.3089C46.504 17.5222 45.3906 19.4064 43.9774 21.9616C42.5642 24.5167 41.8077 26.1297 41.722 26.7721C41.6792 27.0719 41.6649 27.3002 41.6649 27.4858C41.6649 27.8712 41.8648 28.0568 42.2645 28.0568C42.6642 28.0568 43.1067 27.8998 43.592 27.6C44.0773 27.286 44.5341 26.9577 44.9338 26.6008C46.0329 25.6301 46.6182 25.1305 46.6896 25.1305C46.9465 25.1305 47.075 25.573 47.075 26.4438C47.075 26.9148 46.8609 27.3431 46.4184 27.7285C45.4334 28.5707 44.6055 29.213 43.9346 29.6413C43.2637 30.0695 42.5928 30.2836 41.9076 30.2836C41.7649 30.2836 41.6221 30.2693 41.4937 30.2408C40.7086 30.0981 40.1376 29.8126 39.7807 29.3843C39.4096 28.9561 39.2383 28.3851 39.2383 27.6714C39.2383 26.9577 39.4524 26.0726 39.8806 25.0449C40.3089 24.0171 40.837 22.918 41.4794 21.7617C42.5357 19.8632 43.592 18.0932 44.6341 16.4373L44.0773 16.5087C42.9497 16.6372 42.293 16.6943 42.1075 16.6943H41.979C41.6935 16.6943 41.4223 16.6372 41.1653 16.523C40.9084 16.4088 40.7656 16.266 40.7656 16.109C40.7656 15.9377 40.837 15.7807 40.9798 15.6237C41.1225 15.4667 41.2082 15.3382 41.2367 15.2525C41.3081 15.0384 41.565 14.7958 42.0075 14.5388C42.45 14.2819 42.7784 14.1391 43.0068 14.1248C43.2352 14.1106 43.4493 14.0963 43.6634 14.082C43.8775 14.0678 44.1059 14.0677 44.3628 14.0535C44.6198 14.0392 44.8196 14.0392 44.9624 14.0249L46.2756 13.9678C47.0893 12.7402 47.6603 11.9408 47.96 11.5983C48.2741 11.2414 48.4454 11.0558 48.4882 11.0273C48.531 10.9987 48.6309 10.9702 48.7879 10.9702L49.4874 10.8988Z" fill="#292F36"/>
<path d="M58.2658 25.1592C58.4514 25.1592 58.5655 25.3019 58.6084 25.5874C58.6512 25.8729 58.6655 26.1584 58.6655 26.4724C58.6655 26.7865 58.6369 26.9863 58.5798 27.1005C58.2943 27.6429 57.6805 28.3138 56.7241 29.0989C55.7677 29.884 54.8542 30.2837 53.9977 30.2837C53.4695 30.2837 52.9842 30.1267 52.5274 29.8127C52.0849 29.4986 51.8565 28.9419 51.8565 28.1568C51.8565 27.3717 52.0706 26.5866 52.4846 25.8301C50.0579 28.8706 48.1737 30.3837 46.7891 30.3837C46.2466 30.3837 45.8041 30.1838 45.4615 29.7984C45.1189 29.413 44.9619 29.0133 44.9619 28.5851C44.9619 28.1711 45.019 27.7429 45.1332 27.3004C45.2474 26.8578 45.3759 26.4582 45.5044 26.1013C45.6328 25.7444 45.8327 25.3162 46.0896 24.8023C46.3465 24.2884 46.5464 23.9173 46.6606 23.6746C46.7748 23.432 46.9889 23.0894 47.2744 22.6183C47.5599 22.1472 47.9167 21.5049 48.3735 20.7055C48.8303 19.9061 49.2014 19.3066 49.5012 18.9212C49.801 18.5358 50.0865 18.3359 50.372 18.3359C50.6574 18.3359 50.9001 18.4501 51.1142 18.6785C51.3284 18.9069 51.4425 19.1068 51.4425 19.2495C51.4425 19.3923 51.1142 20.0489 50.4576 21.2194C48.5306 24.7167 47.5599 26.7436 47.5599 27.3289C47.5599 27.4716 47.617 27.543 47.7169 27.543C48.1879 27.543 49.3585 26.5295 51.2142 24.5025C53.0699 22.4756 54.1547 21.1766 54.4545 20.6056C54.7542 20.0346 55.0255 19.5493 55.311 19.1639C55.5822 18.7785 55.7963 18.5358 55.939 18.4501C56.353 18.1789 56.8954 18.0362 57.5663 18.0076C57.6805 18.0076 57.7519 18.0076 57.809 18.0219C57.8661 18.0362 57.9375 18.1218 58.0088 18.2646C58.0802 18.4073 58.123 18.5358 58.123 18.6357C58.0374 18.9069 57.652 19.6349 56.9525 20.8197C56.2673 22.0045 55.8819 22.6754 55.8106 22.8181C54.6543 25.202 54.0833 26.7579 54.0833 27.4716C54.0833 27.8856 54.2404 28.0855 54.5544 28.0855C55.1254 28.0141 55.8106 27.5573 56.6099 26.7294C56.9097 26.4296 57.1952 26.1156 57.4807 25.8015C57.7662 25.4875 57.9517 25.3019 58.0088 25.2591C58.0802 25.1877 58.1659 25.1592 58.2658 25.1592Z" fill="#292F36"/>
<path d="M62.5049 21.7761C64.8031 19.1639 66.773 17.8506 68.386 17.8506C68.7857 17.8506 69.1141 17.9648 69.371 18.2075C69.6279 18.4502 69.7564 18.7499 69.7564 19.1353C69.7564 19.5207 69.4852 20.1488 68.9428 21.0481C68.4003 21.9331 67.9007 22.6897 67.4439 23.3035C67.2013 23.6175 66.93 23.7746 66.616 23.7746C66.3162 23.7746 66.0736 23.6604 65.9023 23.432C65.731 23.2036 65.6453 22.9466 65.6453 22.6469C65.6453 21.976 66.0022 21.2051 66.7302 20.3629L66.7016 20.3344C66.3733 20.3629 65.5882 21.0053 64.3035 22.2329C63.0331 23.4748 61.9482 24.5882 61.0489 25.5589C60.1639 26.5438 59.1932 27.7286 58.1369 29.1418C57.8372 29.5557 57.5802 29.7699 57.3661 29.7699C57.152 29.7699 56.8808 29.6985 56.5382 29.57C56.1956 29.4415 55.9815 29.3416 55.9101 29.2845C55.8387 29.2274 55.7959 29.1275 55.7959 28.9848C55.7959 28.8563 55.8387 28.685 55.9101 28.5137C55.9815 28.3281 56.1385 28.0712 56.3383 27.7429C56.5382 27.4146 56.8665 26.8721 57.2947 26.1299C57.723 25.3876 58.3796 24.2599 59.2789 22.7611C60.1782 21.2622 60.7063 20.3487 60.8919 20.0346C61.2631 19.3923 61.5628 18.9212 61.8055 18.6357C62.248 18.079 62.9903 17.8078 64.0323 17.8078C64.2607 17.8078 64.3892 17.9505 64.3892 18.2503C64.3892 18.7071 63.9609 19.5778 63.1187 20.834L62.5049 21.7761Z" fill="#292F36"/>
<path d="M78.2503 18.807C78.2503 19.4493 77.9934 20.0203 77.4652 20.5056C76.9371 20.991 76.3518 21.2336 75.6809 21.2336C75.4668 21.2336 75.324 21.1765 75.2527 21.0766C75.1813 20.9767 75.1527 20.8339 75.1527 20.6769C75.1527 20.5199 75.167 20.3486 75.2098 20.1916C74.853 20.3058 74.4675 20.4914 74.0393 20.734C73.6111 20.9767 73.0829 21.3336 72.4548 21.8189C71.8268 22.3042 71.5127 22.6468 71.5127 22.8895C71.5127 22.9609 71.6269 23.0037 71.8553 23.0037C72.0837 23.0037 72.4406 22.918 72.9116 22.761C73.3827 22.604 73.7253 22.5183 73.9108 22.5183C74.0964 22.5183 74.2249 22.5326 74.282 22.5469C74.4104 22.6183 74.5389 22.761 74.6959 22.9894C74.8387 23.2178 74.9101 23.4034 74.9101 23.5318C74.9101 23.6603 74.7816 23.8316 74.5247 24.0457C74.2677 24.2598 73.9822 24.4169 73.6682 24.531C73.3399 24.6452 73.1258 24.7309 73.0258 24.788C70.9703 25.9442 69.9425 26.7293 69.9425 27.1576C69.9425 27.9141 70.5849 28.2995 71.8839 28.2995C72.7118 28.2995 73.554 28.0426 74.3819 27.5144C75.0956 27.0719 75.738 26.6151 76.309 26.1441C76.88 25.6873 77.2368 25.4018 77.3938 25.2876C77.5509 25.1734 77.6651 25.1306 77.7364 25.1306C77.9934 25.1306 78.1218 25.4161 78.1218 25.9871C78.1218 26.558 78.0933 26.9292 78.0219 27.1005C77.9505 27.286 77.765 27.5002 77.4367 27.7714C75.3526 29.47 73.3684 30.3265 71.5127 30.3265C70.5135 30.3265 69.7284 30.1838 69.1289 29.9125C68.0297 29.4129 67.4873 28.6564 67.4873 27.6286C67.4873 26.2868 68.4152 25.259 70.2851 24.5739C69.914 24.4026 69.6713 24.2027 69.5714 23.9315C69.4572 23.6746 69.4144 23.2606 69.4144 22.6896C69.4144 22.1186 69.6856 21.5191 70.2137 20.8768C70.7419 20.2344 71.3985 19.7063 72.1694 19.3066C73.8823 18.3787 75.4239 17.9219 76.7658 17.9219C77.0941 17.9219 77.4081 17.9933 77.7507 18.1503C78.0933 18.3073 78.2503 18.5215 78.2503 18.807Z" fill="#292F36"/>
<path d="M111.567 8.87192H111.752C111.809 8.87192 111.852 8.87192 111.867 8.88619C111.881 8.90046 111.895 8.90047 111.924 8.91474C111.952 8.91474 111.966 8.92901 111.995 8.95756C112.038 9.00039 112.109 9.04321 112.195 9.08603C112.309 9.17168 112.366 9.2716 112.366 9.3858C112.366 9.5 112.252 9.74266 112.024 10.1138C111.795 10.4849 111.21 11.3842 110.254 12.8402C108.07 16.1805 106.114 19.2923 104.387 22.1472C101.403 27.1148 99.8902 29.6128 99.8617 29.6414C99.8331 29.6699 99.8188 29.6985 99.8046 29.727C99.7903 29.7841 99.7617 29.8127 99.6904 29.8127L99.4905 29.7698L99.0908 29.8698L98.8624 29.8269L98.6198 29.8698H98.5341L97.7205 29.984C97.2352 29.984 96.9925 29.8127 96.9925 29.4843C96.9925 29.3416 97.0353 29.1703 97.121 28.9705C97.4207 28.2567 98.9481 25.673 101.689 21.1908C99.8902 21.2337 98.1059 21.2622 96.3501 21.2622L93.2097 21.2479C92.6959 22.0759 91.9821 23.2464 91.0828 24.7737C89.1415 28.0997 88.1137 29.7698 87.9853 29.7984C87.8568 29.8269 87.7569 29.8555 87.6712 29.8555C87.5856 29.8555 87.5142 29.8127 87.4571 29.7127C87.3857 29.6271 87.3429 29.57 87.3144 29.57C87.2858 29.57 87.243 29.5843 87.1573 29.6271C87.086 29.6699 86.9718 29.6842 86.8148 29.6842L86.4722 29.6699L86.3437 29.5843C86.3294 29.5843 86.3152 29.5985 86.3009 29.6271C86.2866 29.6556 86.2438 29.6699 86.1867 29.6699C85.7727 29.6699 85.5586 29.4986 85.5586 29.1418C85.5586 28.9134 85.6442 28.5993 85.8013 28.2139C85.9726 27.8285 86.1867 27.4145 86.4579 26.972C86.7291 26.5295 87.4143 25.4589 88.542 23.7888C89.6554 22.1187 90.2121 21.2765 90.2121 21.2622C90.0265 21.2479 89.8124 21.2479 89.5697 21.2337C89.0701 21.2337 88.7275 21.2194 88.5134 21.1766C87.9567 21.0766 87.5713 20.6199 87.3715 19.8062C87.2573 19.4065 87.2144 19.1496 87.2287 19.0211C87.2287 18.7642 87.3429 18.6214 87.5713 18.6214L87.9567 18.7213C88.1565 18.7356 88.6133 18.7499 89.3556 18.7927C90.0979 18.8355 90.6261 18.8498 90.9544 18.8498L91.7823 18.8213C93.0527 16.8371 94.5658 14.5817 96.3359 12.0694C95.0512 13.1257 93.6237 13.6539 92.0535 13.6539C91.3112 13.6539 90.6689 13.4826 90.1407 13.1257C89.5983 12.7689 89.3413 12.3121 89.3413 11.7696C89.3413 11.2272 89.5412 10.799 89.9552 10.4707C90.3691 10.1566 90.7545 9.9996 91.1257 9.9996C91.4968 9.9996 91.6824 10.0567 91.6824 10.1709C91.6824 10.2137 91.6253 10.2565 91.5253 10.2994C91.4254 10.3565 91.3683 10.3993 91.3683 10.4421C91.3683 10.5991 91.5396 10.7419 91.8822 10.8561C92.2248 10.9703 92.6102 11.0416 93.0384 11.0416C93.4667 11.0416 93.9806 10.9132 94.6086 10.6705C95.2367 10.4278 95.8791 10.0995 96.55 9.71411C97.4921 9.17168 98.2344 8.71489 98.7768 8.35803C99.0908 8.20101 99.3764 8.12964 99.6618 8.12964C99.9473 8.12964 100.133 8.15819 100.261 8.22956C100.39 8.28666 100.475 8.35803 100.533 8.41513C100.59 8.47223 100.661 8.55788 100.718 8.6578C100.79 8.75772 100.847 8.84337 100.918 8.88619C100.975 8.94329 101.018 9.00039 101.018 9.07176C101.018 9.14313 100.975 9.24305 100.904 9.40007C100.832 9.54282 100.461 10.1423 99.7903 11.1844C99.1194 12.2264 98.2486 13.554 97.1923 15.167C96.136 16.78 95.3652 17.9648 94.8799 18.7356C97.4921 18.7356 100.304 18.6928 103.33 18.5929C107.013 12.7831 108.955 9.74266 109.154 9.45717C109.354 9.17168 109.54 8.98611 109.711 8.90046C109.882 8.81482 110.082 8.77199 110.325 8.77199L111.567 8.87192Z" fill="#292F36"/>
<path d="M116.335 18.6071C116.635 18.6071 116.935 18.7356 117.234 19.0068C117.548 19.278 117.691 19.6777 117.691 20.2202C117.691 20.7626 117.506 21.462 117.12 22.3328C116.735 23.1893 116.221 24.0743 115.55 24.9736C114.893 25.8586 114.151 26.7008 113.366 27.4859C112.567 28.271 111.71 28.9133 110.796 29.413C109.869 29.9126 109.041 30.1695 108.284 30.1695C107.528 30.1695 106.928 29.9268 106.471 29.4558C106.015 28.9847 105.786 28.3281 105.786 27.4859C105.786 26.6437 106 25.7016 106.414 24.6881C106.828 23.6603 107.356 22.761 108.013 21.9759C108.67 21.1908 109.369 20.4914 110.14 19.8633C111.724 18.5786 113.123 17.9505 114.322 17.9505C114.865 17.9505 115.264 18.079 115.536 18.3502C115.636 18.4358 115.678 18.5215 115.678 18.5786V18.6642C115.835 18.6071 116.05 18.6071 116.335 18.6071ZM114.865 20.5485H114.765C114.422 20.5485 114.251 20.3058 114.251 19.8062C113.537 20.0346 112.795 20.4485 112.01 21.0338C111.225 21.6191 110.525 22.3185 109.911 23.1179C108.655 24.7166 108.027 26.0727 108.013 27.1719C108.013 27.7143 108.213 27.9855 108.612 27.9855C109.012 27.9855 109.612 27.7143 110.397 27.2004C111.182 26.6865 111.967 25.93 112.752 24.945C113.523 23.9744 114.108 23.1179 114.494 22.4042C114.879 21.6904 115.079 21.2051 115.079 20.9339C115.065 20.6769 114.993 20.5485 114.865 20.5485Z" fill="#292F36"/>
<path d="M117.376 29.8412L116.663 29.8126H116.406C116.306 29.7841 116.206 29.727 116.092 29.6413C115.977 29.5557 115.892 29.4843 115.835 29.4557C115.778 29.4272 115.749 29.3415 115.749 29.2416C115.749 29.1417 115.792 28.9561 115.863 28.7135C117.762 24.531 119.603 21.1765 121.387 18.6785C121.587 18.4073 121.901 18.1931 122.33 18.0504C122.758 17.9076 123.186 17.8363 123.6 17.8363C123.843 17.8363 123.971 18.0218 123.971 18.4073C123.971 18.5214 123.928 18.6642 123.857 18.8355C123.786 19.0211 123.586 19.3065 123.272 19.7205C122.958 20.1345 122.587 20.6055 122.158 21.1194C121.73 21.6333 121.487 21.9473 121.43 22.033C122.772 20.6484 123.971 19.6206 125.056 18.9354C126.141 18.2645 126.912 17.9219 127.397 17.9219C127.882 17.9219 128.254 18.0647 128.51 18.3359C128.767 18.6071 128.896 18.9069 128.896 19.2209C128.896 19.5349 128.867 19.8062 128.825 20.006C128.782 20.2201 128.696 20.4342 128.582 20.6626C128.468 20.891 128.368 21.0909 128.282 21.2479C128.196 21.4049 128.054 21.619 127.868 21.876C127.668 22.1329 127.54 22.3185 127.468 22.4184C127.397 22.5183 127.24 22.7039 127.012 22.9751C126.783 23.2463 126.655 23.4033 126.641 23.4319C126.912 23.1607 127.297 22.761 127.782 22.2186C128.268 21.6761 128.682 21.2336 129.024 20.8768C129.367 20.5199 129.781 20.1059 130.295 19.6491C130.809 19.1924 131.28 18.8212 131.708 18.55C132.764 17.8934 133.835 17.5508 134.92 17.5508C135.291 17.5508 135.605 17.665 135.862 17.9076C136.119 18.1503 136.247 18.4215 136.247 18.7498C136.247 19.0782 135.848 19.8633 135.062 21.0909C134.277 22.3185 133.478 23.5604 132.693 24.8022C131.908 26.0441 131.508 26.8292 131.508 27.1575C131.508 27.6001 131.594 27.8713 131.751 27.9569C131.922 28.0426 132.122 28.0711 132.35 28.0568C132.579 28.0426 132.921 27.8855 133.335 27.6001C133.763 27.3146 134.135 27.0291 134.463 26.715C135.005 26.2297 135.491 25.7586 135.962 25.3019C136.062 25.2162 136.162 25.1734 136.29 25.1734C136.476 25.1734 136.59 25.3161 136.633 25.6016C136.675 25.8871 136.69 26.1726 136.69 26.4866C136.69 26.8007 136.661 27.0005 136.604 27.1147C136.319 27.6572 135.691 28.3281 134.734 29.1274C133.763 29.9125 132.836 30.3122 131.951 30.3122C131.836 30.3122 131.765 30.3122 131.722 30.2979C130.723 30.198 130.024 29.9268 129.638 29.47C129.253 29.0132 129.067 28.4708 129.067 27.857C129.067 27.2432 129.281 26.4724 129.71 25.5873C130.138 24.7023 130.595 23.8887 131.108 23.1749C131.622 22.4612 132.079 21.8046 132.507 21.2193C132.936 20.6341 133.15 20.32 133.15 20.2772C133.15 20.2344 133.107 20.2058 133.035 20.2058C132.736 20.2058 132.065 20.6912 131.009 21.6761C129.224 23.3462 127.683 24.9593 126.384 26.5009C126.041 26.9149 125.227 27.9426 123.957 29.6128C123.814 29.8126 123.571 29.9125 123.257 29.9125C122.943 29.9125 122.615 29.8554 122.272 29.727C121.93 29.5985 121.759 29.4415 121.759 29.2559C121.759 29.156 122.529 27.7856 124.085 25.1448C125.641 22.504 126.412 21.0623 126.412 20.8339C126.412 20.5913 126.269 20.4771 125.984 20.4771C125.698 20.4771 125.099 20.9053 124.2 21.7618C121.73 24.1171 119.817 26.4724 118.461 28.7991C118.376 28.9419 118.204 29.156 117.947 29.4415C117.69 29.727 117.462 29.8412 117.376 29.8412Z" fill="#292F36"/>
<path d="M145.683 18.807C145.683 19.4493 145.426 20.0203 144.898 20.5056C144.37 20.991 143.784 21.2336 143.113 21.2336C142.899 21.2336 142.757 21.1765 142.685 21.0766C142.614 20.9767 142.585 20.8339 142.585 20.6769C142.585 20.5199 142.6 20.3486 142.642 20.1916C142.286 20.3058 141.9 20.4914 141.472 20.734C141.044 20.9767 140.516 21.3336 139.887 21.8189C139.259 22.3042 138.945 22.6468 138.945 22.8895C138.945 22.9609 139.06 23.0037 139.288 23.0037C139.516 23.0037 139.873 22.918 140.344 22.761C140.815 22.604 141.158 22.5183 141.343 22.5183C141.529 22.5183 141.657 22.5326 141.715 22.5469C141.843 22.6183 141.972 22.761 142.129 22.9894C142.271 23.2178 142.343 23.4034 142.343 23.5318C142.343 23.6603 142.214 23.8316 141.957 24.0457C141.7 24.2598 141.415 24.4169 141.101 24.531C140.772 24.6452 140.558 24.7309 140.458 24.788C138.403 25.9442 137.375 26.7293 137.375 27.1576C137.375 27.9141 138.017 28.2995 139.316 28.2995C140.144 28.2995 140.987 28.0426 141.815 27.5144C142.528 27.0719 143.171 26.6151 143.742 26.1441C144.313 25.6873 144.669 25.4018 144.826 25.2876C144.983 25.1734 145.098 25.1306 145.169 25.1306C145.426 25.1306 145.554 25.4161 145.554 25.9871C145.554 26.558 145.526 26.9292 145.455 27.1005C145.383 27.286 145.198 27.5002 144.869 27.7714C142.785 29.47 140.801 30.3265 138.945 30.3265C137.946 30.3265 137.161 30.1838 136.561 29.9125C135.462 29.4129 134.92 28.6564 134.92 27.6286C134.92 26.2868 135.848 25.259 137.718 24.5739C137.347 24.4026 137.104 24.2027 137.004 23.9315C136.89 23.6746 136.847 23.2606 136.847 22.6896C136.847 22.1186 137.118 21.5191 137.646 20.8768C138.174 20.2344 138.831 19.7063 139.602 19.3066C141.315 18.3787 142.857 17.9219 144.198 17.9219C144.527 17.9219 144.841 17.9933 145.183 18.1503C145.526 18.3073 145.683 18.5215 145.683 18.807Z" fill="#292F36"/>
<path d="M0.982422 33.7952C4.73662 35.3654 8.56219 36.5787 12.4591 37.5066C16.3275 38.4772 20.2673 39.1624 24.2071 39.5906C26.177 39.8618 28.1611 39.8904 30.1168 40.076C32.1009 40.0902 34.0708 40.2473 36.0407 40.1331L38.9955 40.0617C39.9805 40.0474 40.9654 39.919 41.9503 39.8619C42.9353 39.7762 43.9202 39.7334 44.8909 39.6049L47.8172 39.1909C51.7427 38.7627 55.554 37.8491 59.351 36.75C63.1908 35.6937 66.8166 34.2948 70.6564 32.8388C74.5819 31.397 78.8357 30.4549 83.1466 30.9117C85.2736 31.1829 87.4147 31.8681 89.1562 33.1243C90.912 34.3662 92.1682 36.1362 92.9675 37.9919C91.7685 36.336 90.2696 34.98 88.5424 34.1378C86.8152 33.2956 84.9167 32.953 83.0324 33.0101C79.2211 33.0672 75.4669 34.3376 71.9411 35.9364C68.3582 37.7064 64.4755 39.3051 60.5643 40.6327C56.6245 41.9031 52.5563 42.9166 48.431 43.4305C40.2231 44.5154 31.8154 44.5296 23.7075 42.8881C19.6392 42.1458 15.6709 40.9895 11.8311 39.5193C8.01975 37.9919 4.29411 36.2076 0.982422 33.7952Z" fill="#292F36"/>
<path d="M137.49 10.0281C134.307 8.67204 131.067 7.61572 127.783 6.7878C124.515 5.91705 121.203 5.30325 117.877 4.87502C116.221 4.61807 114.537 4.56098 112.881 4.36113C111.211 4.31831 109.555 4.14701 107.885 4.21839C107.057 4.23266 106.215 4.23266 105.387 4.21839C104.559 4.21839 103.717 4.30403 102.889 4.33258C102.061 4.38968 101.219 4.40396 100.391 4.4896L97.9068 4.78937C94.5809 5.06058 91.3548 5.74576 88.1288 6.58796C84.8599 7.37306 81.7623 8.48647 78.4649 9.59989C75.0819 10.7276 71.4133 11.4128 67.7305 10.8989C65.9176 10.5991 64.0905 9.95675 62.6487 8.81479C61.1785 7.6871 60.1792 6.14545 59.5654 4.53242C60.5789 5.9456 61.8351 7.10184 63.2768 7.81557C64.7185 8.5293 66.303 8.82906 67.8875 8.81479C71.085 8.81479 74.2539 7.78702 77.2516 6.50231C80.3063 5.04631 83.6608 3.7616 87.0011 2.70529C90.3699 1.69179 93.8814 0.920968 97.3929 0.549831C104.402 -0.192445 111.568 -0.0211512 118.434 1.60615C121.874 2.33415 125.228 3.44756 128.44 4.81792C131.666 6.21682 134.778 7.84412 137.49 10.0281Z" fill="#292F36"/>
</svg>
