<svg width="132" height="44" viewBox="0 0 132 44" fill="none" xmlns="http://www.w3.org/2000/svg">
<path d="M11.6337 0.976501V1.16207L10.8629 1.34764V9.56977L11.6337 9.75534V9.94091H7.97946V9.75534L8.7503 9.56977V2.56098L5.7241 10.0694H5.33866L1.41317 2.56098V9.36993L2.44093 9.75534V9.94091H0V9.75534L1.02777 9.36993V1.34764L0.256931 1.16207V0.976501H1.85567C2.09834 0.976501 2.31246 1.00505 2.48376 1.06215C2.65505 1.11925 2.82637 1.19062 2.95484 1.29054C3.09758 1.39046 3.21178 1.50466 3.3117 1.63313C3.41162 1.7616 3.49728 1.91862 3.58292 2.07564L6.38072 7.42859L8.5219 2.07564C8.59327 1.89007 8.66466 1.73305 8.76459 1.60458C8.85023 1.47611 8.9644 1.36191 9.09287 1.26199C9.22134 1.16207 9.37839 1.0907 9.56396 1.04787C9.74953 1.00505 9.9779 0.976501 10.2634 0.976501H11.6337Z" fill="#292F36"/>
<path d="M16.202 3.36041C16.7302 3.36041 17.2155 3.43179 17.6295 3.5888C18.0434 3.74582 18.4003 3.97422 18.7001 4.25971C18.9998 4.55947 19.214 4.91634 19.371 5.3303C19.528 5.74426 19.5994 6.22959 19.5994 6.75775C19.5994 7.28591 19.528 7.77124 19.371 8.1852C19.214 8.59917 18.9856 8.95603 18.7001 9.25579C18.4003 9.55556 18.0434 9.76968 17.6295 9.9267C17.2155 10.0837 16.7302 10.1551 16.202 10.1551C15.6739 10.1551 15.1885 10.0837 14.7746 9.9267C14.3606 9.76968 14.0038 9.54129 13.704 9.25579C13.4042 8.95603 13.1901 8.59917 13.0331 8.1852C12.8761 7.77124 12.8047 7.28591 12.8047 6.75775C12.8047 6.22959 12.8761 5.74426 13.0331 5.3303C13.1901 4.91634 13.4185 4.55947 13.704 4.25971C14.0038 3.95994 14.3606 3.74582 14.7746 3.5888C15.1885 3.43179 15.6596 3.36041 16.202 3.36041ZM16.202 9.91242C16.3448 9.91242 16.4875 9.8696 16.6445 9.76968C16.7873 9.66976 16.9157 9.51274 17.0299 9.27007C17.1441 9.0274 17.2441 8.71336 17.3154 8.31368C17.3868 7.89971 17.4296 7.38583 17.4296 6.77203C17.4296 6.14395 17.3868 5.63006 17.3154 5.23038C17.2441 4.83069 17.1441 4.50237 17.0299 4.27398C16.9157 4.04559 16.7873 3.8743 16.6445 3.77438C16.5018 3.67445 16.3591 3.63163 16.202 3.63163C16.0593 3.63163 15.9165 3.67445 15.7595 3.77438C15.6168 3.8743 15.4883 4.03131 15.3741 4.27398C15.2599 4.51665 15.16 4.83069 15.0886 5.23038C15.0172 5.64434 14.9744 6.15822 14.9744 6.77203C14.9744 7.4001 15.0172 7.91399 15.0886 8.31368C15.16 8.71336 15.2599 9.04168 15.3741 9.27007C15.4883 9.49846 15.6168 9.66976 15.7595 9.76968C15.9023 9.85533 16.045 9.91242 16.202 9.91242Z" fill="#292F36"/>
<path d="M25.8369 0.976501C26.6078 0.976501 26.9932 1.36191 26.9932 2.13274V9.58405L27.764 9.76962V9.95518H26.6078C26.2937 9.95518 26.051 9.91236 25.8655 9.81244C25.6799 9.71252 25.5229 9.59832 25.423 9.48413C25.2945 9.34138 25.1946 9.17009 25.1375 8.99879C25.0233 9.22718 24.8805 9.41275 24.7092 9.58405C24.5665 9.72679 24.3666 9.85526 24.124 9.98373C23.8813 10.1122 23.5958 10.1693 23.2675 10.1693C22.8964 10.1693 22.5538 10.0979 22.2397 9.95518C21.9114 9.81244 21.6402 9.59832 21.4118 9.31283C21.1834 9.02734 20.9836 8.67048 20.8551 8.25652C20.7124 7.82828 20.6553 7.34294 20.6553 6.77196C20.6553 6.20098 20.7267 5.71565 20.8551 5.28741C20.9979 4.85918 21.1834 4.51659 21.4404 4.2311C21.683 3.94561 21.9828 3.73149 22.3254 3.58874C22.668 3.446 23.0534 3.37462 23.4816 3.37462C23.71 3.37462 23.9099 3.40317 24.0954 3.446C24.281 3.50309 24.438 3.56019 24.5665 3.63157C24.7235 3.70294 24.852 3.78859 24.9662 3.88851V1.39046L24.1954 1.20489V1.01933H25.8369V0.976501ZM24.9376 4.25964C24.8377 4.15972 24.7521 4.07408 24.6379 4.0027C24.538 3.93133 24.438 3.87423 24.3238 3.81713C24.2096 3.76004 24.0954 3.74576 23.967 3.74576C23.81 3.74576 23.6529 3.78859 23.5102 3.87423C23.3674 3.95988 23.2532 4.10262 23.139 4.31674C23.0391 4.53086 22.9535 4.8449 22.8964 5.23031C22.8393 5.63 22.8107 6.12961 22.8107 6.75769C22.8107 7.37149 22.8393 7.85683 22.8964 8.24224C22.9535 8.62765 23.0249 8.92742 23.1248 9.14153C23.2104 9.35565 23.3104 9.51267 23.4388 9.58405C23.553 9.65542 23.6672 9.69824 23.7814 9.69824C23.9812 9.69824 24.1525 9.64114 24.2953 9.54122C24.438 9.4413 24.5522 9.31283 24.6521 9.18436C24.7663 9.02734 24.8663 8.85604 24.9519 8.67048V4.25964H24.9376Z" fill="#292F36"/>
<path d="M32.0605 10.1694C30.9614 10.1694 30.1049 9.86961 29.5054 9.27008C28.8916 8.67055 28.5918 7.82835 28.5918 6.77203C28.5918 6.24388 28.6632 5.75854 28.8202 5.34458C28.9772 4.93062 29.1913 4.57375 29.4626 4.27399C29.7338 3.97422 30.0621 3.76011 30.4618 3.60309C30.8472 3.44607 31.2754 3.37469 31.7465 3.37469C32.2318 3.37469 32.6601 3.44607 33.0312 3.57454C33.4166 3.71728 33.7306 3.90285 34.0019 4.13125C34.2731 4.35964 34.4729 4.63085 34.6157 4.94489C34.7584 5.25893 34.8298 5.58725 34.8298 5.94411C34.8298 6.05831 34.8298 6.1725 34.8155 6.25815C34.8012 6.3438 34.787 6.42945 34.7727 6.50082C34.7441 6.58647 34.7298 6.65784 34.7013 6.71494C34.3302 6.78631 33.9305 6.85768 33.5022 6.9005C33.1454 6.9576 32.7314 7.00043 32.2604 7.02898C31.7893 7.05752 31.304 7.08607 30.7901 7.08607C30.7901 7.61423 30.8329 8.05674 30.9043 8.41361C30.9756 8.77047 31.0898 9.05596 31.2183 9.2558C31.3611 9.46992 31.5181 9.61267 31.7036 9.69831C31.8892 9.78396 32.1034 9.82679 32.3175 9.82679C32.5744 9.82679 32.8171 9.78396 33.0454 9.68404C33.2738 9.58412 33.4737 9.46992 33.6307 9.3129C33.802 9.15588 33.9305 8.97031 34.0304 8.77047C34.1303 8.57063 34.1731 8.37078 34.1731 8.15666H34.4872C34.4872 8.41361 34.4301 8.65627 34.3159 8.89894C34.2017 9.14161 34.0304 9.35572 33.8163 9.54129C33.6022 9.72686 33.3452 9.86961 33.0454 9.9838C32.76 10.1123 32.4316 10.1694 32.0605 10.1694ZM30.7758 6.75776C31.0613 6.75776 31.3182 6.75776 31.5466 6.74349C31.775 6.72921 31.9606 6.71494 32.1176 6.70066C32.3032 6.68639 32.4459 6.65784 32.5744 6.64356C32.5887 6.55791 32.6172 6.45799 32.6315 6.35807C32.6458 6.25815 32.6601 6.15823 32.6743 6.04403C32.6886 5.92984 32.6886 5.80137 32.6886 5.6729C32.6886 5.28748 32.66 4.95917 32.6029 4.70223C32.5458 4.44529 32.4745 4.23117 32.3745 4.05987C32.2889 3.90285 32.189 3.77438 32.0605 3.71728C31.932 3.66019 31.8321 3.61736 31.7179 3.61736C31.6037 3.61736 31.4895 3.66019 31.3753 3.74583C31.2612 3.83148 31.1612 3.9885 31.0613 4.20262C30.9757 4.43101 30.89 4.74505 30.8329 5.15901C30.7758 5.57297 30.7758 6.10113 30.7758 6.75776Z" fill="#292F36"/>
<path d="M40.2255 3.80287C39.9686 3.80287 39.7402 3.85997 39.5403 3.95989C39.3405 4.05981 39.1692 4.18828 39.0264 4.31675C38.8694 4.47377 38.7409 4.64507 38.6125 4.83064V9.58406L39.3833 9.76963V9.9552H35.7861V9.76963L36.557 9.58406V3.93134L35.7861 3.74577V3.5602H36.9424C37.2421 3.5602 37.4848 3.6173 37.6846 3.71722C37.8702 3.81714 38.0272 3.93134 38.1414 4.04554C38.2699 4.18828 38.3698 4.3453 38.4269 4.5166C38.5554 4.33103 38.7124 4.15973 38.898 4.00271C39.055 3.87424 39.2549 3.76005 39.4975 3.64585C39.7402 3.53166 40.0114 3.48883 40.3397 3.48883C40.7965 3.48883 41.1391 3.60303 41.3675 3.80287C41.5959 4.01699 41.6958 4.31675 41.6958 4.70217C41.6958 4.98766 41.6101 5.23032 41.4388 5.40162C41.2675 5.57291 41.0249 5.65856 40.7394 5.65856C40.668 5.65856 40.6109 5.65856 40.5395 5.65856C40.4682 5.65856 40.4254 5.64429 40.3825 5.64429C40.3254 5.63001 40.2683 5.63001 40.2255 5.60146V3.80287Z" fill="#292F36"/>
<path d="M47.2198 5.47304C47.2198 5.18755 47.1913 4.93061 47.1342 4.71649C47.0771 4.50237 47.0057 4.33107 46.9058 4.2026C46.8202 4.05986 46.7203 3.95993 46.5918 3.90284C46.4776 3.84574 46.3634 3.80292 46.2492 3.80292C46.0493 3.80292 45.878 3.86001 45.7353 3.95994C45.5926 4.05986 45.4641 4.18833 45.3784 4.3168C45.2642 4.47382 45.1786 4.64511 45.0929 4.83068V9.5841L45.8638 9.76967V9.95524H42.2666V9.76967L43.0374 9.5841V3.93139L42.2666 3.74582V3.56025H43.4228C43.7226 3.56025 43.9653 3.61735 44.1651 3.71727C44.3507 3.81719 44.5077 3.93139 44.6219 4.04558C44.7504 4.18833 44.8503 4.34535 44.9074 4.51664C45.0216 4.30252 45.1643 4.10268 45.3356 3.93139C45.4784 3.78864 45.6782 3.66017 45.9066 3.5317C46.135 3.40323 46.4347 3.34613 46.7773 3.34613C47.1485 3.34613 47.4911 3.40323 47.7908 3.5317C48.1049 3.6459 48.3618 3.81719 48.5759 4.00276C48.79 4.2026 48.9614 4.41672 49.0898 4.67366C49.2183 4.9306 49.2754 5.18754 49.2754 5.45876V9.56983L50.0462 9.7554V9.94097H48.3761C47.6053 9.94097 47.2198 9.55555 47.2198 8.78473V5.47304Z" fill="#292F36"/>
<path d="M1.35645 18.9767V18.4485H11.2772V18.9767L9.19315 19.5049V30.2821H16.673V19.5049L14.5889 18.9767V18.4485H24.5097V18.9767L22.4256 19.5049V41.7731L24.5097 42.3013V42.8295H14.5889V42.287L16.673 41.7589V31.1529H9.19315V41.7589L11.2772 42.287V42.8152H1.35645V42.287L3.44052 41.7589V19.4906L1.35645 18.9767Z" fill="#292F36"/>
<path d="M36.8424 24.8864C38.2842 24.8864 39.5689 25.1005 40.7108 25.5144C41.8528 25.9284 42.8092 26.5422 43.6085 27.3416C44.4079 28.1409 45.0217 29.1116 45.4357 30.2536C45.8496 31.3955 46.0638 32.6803 46.0638 34.122C46.0638 35.5637 45.8496 36.8484 45.4357 37.9904C45.0217 39.1323 44.4079 40.0887 43.6085 40.8881C42.8092 41.6875 41.8385 42.3013 40.7108 42.7153C39.5689 43.1292 38.2842 43.3433 36.8424 43.3433C35.4007 43.3433 34.116 43.1292 32.974 42.7153C31.8321 42.3013 30.8757 41.6875 30.0763 40.8881C29.2769 40.0887 28.6631 39.1181 28.2492 37.9904C27.8352 36.8484 27.6211 35.5637 27.6211 34.122C27.6211 32.6803 27.8352 31.3955 28.2492 30.2536C28.6631 29.1116 29.2769 28.1552 30.0763 27.3416C30.8757 26.5279 31.8464 25.9284 32.974 25.5144C34.116 25.1005 35.4007 24.8864 36.8424 24.8864ZM36.8424 42.6296C37.2421 42.6296 37.6276 42.5011 38.0272 42.2442C38.4269 41.9872 38.7695 41.5447 39.0835 40.9024C39.3976 40.26 39.6545 39.3893 39.8544 38.2901C40.0542 37.191 40.1541 35.7921 40.1541 34.0934C40.1541 32.3948 40.0542 30.9959 39.8544 29.8967C39.6545 28.7976 39.3976 27.9268 39.0835 27.2845C38.7695 26.6421 38.4127 26.1996 38.0272 25.9427C37.6418 25.6857 37.2421 25.5573 36.8424 25.5573C36.4427 25.5573 36.0574 25.6857 35.6577 25.9427C35.258 26.1996 34.9154 26.6421 34.6013 27.2845C34.2873 27.9268 34.0304 28.7976 33.8305 29.8967C33.6307 30.9959 33.5307 32.3948 33.5307 34.0934C33.5307 35.7921 33.6307 37.191 33.8305 38.2901C34.0304 39.3893 34.2873 40.26 34.6013 40.9024C34.9154 41.5447 35.2723 41.9872 35.6577 42.2442C36.0574 42.5011 36.4427 42.6296 36.8424 42.6296Z" fill="#292F36"/>
<path d="M72.1433 30.6247C72.1433 29.7968 72.072 29.0831 71.9292 28.5263C71.7865 27.9696 71.6152 27.4986 71.3868 27.1417C71.1584 26.7849 70.9157 26.5279 70.6588 26.3566C70.3876 26.1996 70.1306 26.1139 69.8737 26.1139C69.4312 26.1139 69.0458 26.2567 68.7032 26.5422C68.3606 26.8277 68.0751 27.156 67.8182 27.4986C67.5469 27.9125 67.29 28.3836 67.0902 28.8832V41.7588L69.1885 42.287V42.8152H59.4533V42.287L61.5374 41.7588V30.6247C61.5374 29.7968 61.466 29.0831 61.3232 28.5263C61.1805 27.9696 61.0092 27.4986 60.7808 27.1417C60.5524 26.7849 60.3098 26.5279 60.0528 26.3566C59.7816 26.1996 59.5246 26.1139 59.2677 26.1139C58.8252 26.1139 58.4398 26.2567 58.0972 26.5422C57.7546 26.8277 57.4691 27.156 57.2122 27.4986C56.9267 27.9125 56.684 28.3836 56.4842 28.8832V41.7588L58.5683 42.287V42.8152H48.833V42.287L50.9171 41.7588V26.4565L48.833 25.9284V25.4002H51.9591C52.7728 25.4002 53.4437 25.543 53.9576 25.8142C54.4857 26.0854 54.8854 26.3994 55.1995 26.7135C55.5421 27.1132 55.799 27.5414 55.9703 27.9982C56.27 27.4129 56.6412 26.899 57.0837 26.428C57.4834 26.0283 57.9687 25.6714 58.5397 25.3431C59.125 25.0148 59.8244 24.8578 60.6666 24.8578C62.0512 24.8578 63.2646 25.1718 64.2638 25.7856C65.2773 26.3994 66.0481 27.1988 66.5763 28.1695C66.8761 27.5699 67.2472 27.0275 67.6897 26.5279C68.0894 26.114 68.5747 25.7285 69.1457 25.3859C69.7309 25.0434 70.4304 24.8578 71.2726 24.8578C72.229 24.8578 73.0855 25.0148 73.8848 25.3146C74.6699 25.6143 75.3551 26.0283 75.9261 26.5565C76.4971 27.0846 76.9396 27.6841 77.2536 28.3836C77.5677 29.0831 77.7247 29.8253 77.7247 30.6104V41.7446L79.8088 42.2727V42.8009H75.2837C73.1996 42.8009 72.1576 41.7588 72.1576 39.6748V30.6247H72.1433Z" fill="#292F36"/>
<path d="M91.2852 43.329C88.3161 43.329 86.0037 42.5154 84.3621 40.8738C82.7205 39.2323 81.8926 36.9911 81.8926 34.1077C81.8926 32.666 82.1067 31.3813 82.5207 30.2393C82.9346 29.0973 83.5199 28.1409 84.2622 27.3273C85.0044 26.5279 85.9037 25.9141 86.9601 25.5001C88.0164 25.0862 89.1726 24.8721 90.4145 24.8721C91.7135 24.8721 92.884 25.0576 93.9118 25.4288C94.9395 25.7999 95.8245 26.2995 96.5383 26.9276C97.252 27.5557 97.8087 28.298 98.1941 29.1402C98.5795 29.9824 98.7651 30.8816 98.7651 31.838C98.7651 32.1664 98.7508 32.4518 98.708 32.6945C98.6652 32.9372 98.6366 33.1513 98.5795 33.3369C98.5081 33.5653 98.451 33.7651 98.4082 33.9221C97.3805 34.1362 96.3099 34.3075 95.1679 34.4503C94.1973 34.593 93.0695 34.7072 91.7991 34.8214C90.5287 34.9213 89.1869 34.9784 87.8023 34.9784C87.8023 36.4202 87.9022 37.6192 88.1163 38.5756C88.3304 39.532 88.6159 40.3028 88.987 40.8738C89.3582 41.4448 89.8007 41.8445 90.3145 42.0872C90.8284 42.3298 91.3852 42.4583 91.9847 42.4583C92.6841 42.4583 93.3408 42.3298 93.9546 42.0729C94.5684 41.8159 95.0965 41.4734 95.5533 41.0451C96.0101 40.6169 96.367 40.1315 96.6382 39.5891C96.9094 39.0467 97.0379 38.49 97.0379 37.9333H97.9086C97.9086 38.6327 97.7516 39.3036 97.4376 39.946C97.1235 40.6026 96.681 41.1736 96.0958 41.6732C95.5105 42.1728 94.8253 42.5725 94.0117 42.8723C93.1838 43.172 92.2702 43.329 91.2852 43.329ZM87.8023 34.1077C88.5874 34.1077 89.2868 34.0934 89.8863 34.0506C90.4859 34.0078 90.9998 33.9792 91.4137 33.9364C91.899 33.8936 92.313 33.8365 92.6699 33.7651C92.7127 33.5367 92.7698 33.2798 92.8412 32.9943C92.884 32.7373 92.9268 32.4518 92.9553 32.1378C92.9839 31.8238 93.0125 31.4955 93.0125 31.1529C93.0125 30.1108 92.9268 29.2401 92.7698 28.5263C92.6127 27.8126 92.3986 27.2416 92.156 26.7991C91.9133 26.3566 91.6278 26.0426 91.3281 25.857C91.014 25.6714 90.7 25.5715 90.4002 25.5715C90.1004 25.5715 89.7864 25.6857 89.4724 25.8998C89.1583 26.1282 88.8871 26.5422 88.6444 27.156C88.4018 27.7698 88.2019 28.6405 88.0307 29.754C87.8879 30.8674 87.8023 32.3234 87.8023 34.1077Z" fill="#292F36"/>
<path d="M115.852 42.4583V28.3408L103.376 18.4628V42.4583H115.852Z" fill="#292F36"/>
<path d="M131.283 42.4583V28.3408L119.007 18.4628V42.4583H131.283Z" fill="#292F36"/>
</svg>
