<svg width="164" height="44" viewBox="0 0 164 44" fill="none" xmlns="http://www.w3.org/2000/svg">
<path d="M35.3997 43.5479H8.58142C4.17427 43.5479 0.602539 39.9762 0.602539 35.569V8.7508C0.602539 4.34365 4.17427 0.771912 8.58142 0.771912H35.3997C39.8068 0.771912 43.3786 4.34365 43.3786 8.7508V35.569C43.3786 39.9762 39.8068 43.5479 35.3997 43.5479Z" fill="#292F36"/>
<path d="M29.6972 22.5534C30.46 23.5099 30.8474 24.6238 30.8474 25.883C30.8474 27.7354 30.2299 29.1883 28.995 30.2175C27.76 31.2466 25.9923 31.7794 23.6918 31.7794H13.6426V10.1674H23.4497C25.6533 10.1674 27.3483 10.6517 28.547 11.6082C29.7456 12.5647 30.351 13.9328 30.351 15.7005C30.351 17.0081 29.9999 18.0857 29.3098 18.9575C28.6196 19.8292 27.7116 20.3861 26.5856 20.6525C27.9053 20.9673 28.9344 21.5969 29.6972 22.5534ZM18.8609 19.0059H22.2874C24.1035 19.0059 25.0116 18.231 25.0116 16.6812C25.0116 15.1315 24.0793 14.3566 22.2268 14.3566H18.8609V19.0059ZM25.4959 25.1565C25.4959 24.3816 25.2416 23.7763 24.7331 23.3404C24.2246 22.9045 23.4981 22.6866 22.5658 22.6866H18.873V27.5417H22.6022C24.5273 27.5296 25.4959 26.7426 25.4959 25.1565Z" fill="white"/>
<path d="M68.1628 31.7794L63.4893 23.6189H62.3027V31.7794H57.0723V10.1674H65.9955C67.7027 10.1674 69.1556 10.4579 70.3301 11.0512C71.5166 11.6445 72.4004 12.4557 72.9937 13.4848C73.587 14.514 73.8776 15.6884 73.8776 17.0202C73.8776 18.5942 73.4417 19.9261 72.5821 21.0278C71.7103 22.1296 70.4632 22.8803 68.8045 23.292L73.9381 31.7915H68.1628V31.7794ZM62.3027 20.0471H65.5354C66.5767 20.0471 67.3395 19.8171 67.8238 19.357C68.3081 18.8969 68.5623 18.2189 68.5623 17.3229C68.5623 16.4633 68.3081 15.7974 67.8117 15.301C67.3153 14.8167 66.5525 14.5624 65.5354 14.5624H62.3027V20.0471Z" fill="#292F36"/>
<path d="M97.5355 27.8444H89.4355L88.0916 31.7915H82.5947L90.5131 10.3369H96.5305L104.449 31.7915H98.8915L97.5355 27.8444ZM96.1915 23.861L93.5037 15.9184L90.7795 23.861H96.1915Z" fill="#292F36"/>
<path d="M133.301 31.7794H128.071L119.329 18.5095V31.7794H114.099V10.1674H119.329L128.071 23.5583V10.1674H133.301V31.7794Z" fill="#292F36"/>
<path d="M162.626 26.5731C161.718 28.2077 160.411 29.4911 158.716 30.4112C157.009 31.3314 155.011 31.7915 152.71 31.7915H144.55V10.1795H152.71C155.035 10.1795 157.045 10.6275 158.728 11.5234C160.423 12.4194 161.718 13.6786 162.626 15.3131C163.534 16.9476 163.982 18.8122 163.982 20.9431C163.982 23.0498 163.522 24.9265 162.626 26.5731ZM156.996 25.4835C158.122 24.4059 158.691 22.8803 158.691 20.931C158.691 18.9696 158.122 17.4562 156.996 16.3786C155.87 15.301 154.284 14.7562 152.238 14.7562H149.768V27.1059H152.238C154.284 27.1059 155.87 26.5731 156.996 25.4835Z" fill="#292F36"/>
</svg>
