<svg width="103" height="103" viewBox="0 0 103 103" fill="none" xmlns="http://www.w3.org/2000/svg">
<path d="M51.4433 101.606C79.3039 101.606 101.889 79.0206 101.889 51.16C101.889 23.2993 79.3039 0.713745 51.4433 0.713745C23.5826 0.713745 0.99707 23.2993 0.99707 51.16C0.99707 79.0206 23.5826 101.606 51.4433 101.606Z" fill="white"/>
<path d="M51.4431 102.32C23.2367 102.32 0.283203 79.3664 0.283203 51.1599C0.283203 22.9535 23.2367 0 51.4431 0C79.6496 0 102.603 22.9535 102.603 51.1599C102.603 79.3664 79.6496 102.32 51.4431 102.32ZM51.4431 1.42745C24.0218 1.42745 1.71066 23.7386 1.71066 51.1599C1.71066 78.5813 24.0218 100.892 51.4431 100.892C78.8645 100.892 101.176 78.5813 101.176 51.1599C101.176 23.7386 78.8645 1.42745 51.4431 1.42745Z" fill="#292F36"/>
<path d="M58.638 5.83827C58.9806 5.86682 59.2804 5.88109 59.5231 5.88109L59.4945 6.10949C59.0948 6.16658 58.7522 6.46635 58.481 7.03733L55.0837 13.832L54.9837 13.8177L54.8981 13.8035L52.7426 6.22368C52.5999 5.72407 52.3572 5.45286 52.0146 5.41003L52.0432 5.18164C52.3572 5.23874 52.7712 5.28156 53.2851 5.33866C53.956 5.39576 54.4556 5.43858 54.7839 5.43858L54.7554 5.66697C54.4556 5.6527 54.2415 5.66697 54.113 5.7098C53.9845 5.75262 53.9132 5.86682 53.8989 6.00956C53.8846 6.13803 53.9132 6.3236 53.9845 6.56627L55.569 12.3617L57.9243 7.62259C58.1241 7.23717 58.2241 6.92313 58.2526 6.69474C58.2812 6.45207 58.2098 6.26651 58.0528 6.13803C57.8958 6.00956 57.6388 5.93819 57.2962 5.89537L57.3248 5.66697C57.7387 5.73835 58.1812 5.79545 58.638 5.83827Z" fill="#292F36"/>
<path d="M68.2301 8.85028C68.0873 8.85028 67.9731 8.90737 67.8875 9.02157C67.8019 9.13577 67.7019 9.32134 67.602 9.59255L65.5607 15.0169C65.4608 15.2881 65.4037 15.5022 65.4037 15.645C65.4037 15.7877 65.4466 15.9019 65.5465 15.9875C65.6464 16.0732 65.832 16.1731 66.0889 16.2873L66.0033 16.5014C65.6749 16.3587 65.2182 16.1731 64.6329 15.9447C64.0048 15.7021 63.5338 15.545 63.2197 15.4451L63.3054 15.231C63.5766 15.3166 63.7764 15.3595 63.9049 15.3595C64.0334 15.3595 64.1618 15.3024 64.2475 15.1882C64.3331 15.074 64.4331 14.8884 64.533 14.6172L66.5742 9.19286C66.6742 8.92165 66.7313 8.70753 66.7313 8.56479C66.7313 8.42204 66.6884 8.30784 66.5885 8.2222C66.4886 8.13655 66.303 8.03663 66.0461 7.92243L66.1317 7.70831C66.4315 7.83678 66.8883 8.02235 67.5164 8.26502C68.1016 8.49341 68.5727 8.65043 68.9153 8.75035L68.8296 8.96447C68.5727 8.87883 68.3728 8.836 68.2301 8.85028Z" fill="#292F36"/>
<path d="M80.9347 16.4014C80.792 16.3729 80.6492 16.4157 80.5208 16.5014C80.3923 16.587 80.2353 16.7583 80.064 17.001L75.9244 22.6109L75.7102 22.4538L76.2669 13.4323L72.5984 18.3999C72.4271 18.6425 72.3129 18.8424 72.2558 18.9994C72.1987 19.1564 72.2273 19.2992 72.2986 19.4419C72.37 19.5847 72.5413 19.7417 72.784 19.9415L72.6412 20.1271C72.4271 19.9415 72.1131 19.6989 71.6991 19.3848C71.328 19.1136 71.0282 18.8995 70.7998 18.771L70.9425 18.5854C71.1709 18.7425 71.3565 18.8281 71.4993 18.8424C71.642 18.8709 71.7847 18.8281 71.9132 18.7425C72.0417 18.6425 72.1987 18.4855 72.37 18.2429L75.7388 13.675C75.9101 13.4323 76.0243 13.2468 76.0671 13.1183C76.1099 12.9898 76.0957 12.8614 76.0243 12.7472C75.9529 12.633 75.8102 12.4902 75.5818 12.3046L75.7245 12.1191C75.9101 12.2904 76.1956 12.5188 76.581 12.79C76.8665 13.0041 77.1091 13.1754 77.3375 13.3039L76.8808 20.8694L79.8499 16.844C80.0212 16.6013 80.1496 16.4014 80.1924 16.2444C80.2353 16.0874 80.221 15.9447 80.1496 15.8019C80.0783 15.6592 79.907 15.4879 79.6643 15.3023L79.807 15.1167C80.0212 15.3023 80.3352 15.545 80.7492 15.859C81.1203 16.1302 81.4201 16.3443 81.6484 16.4728L81.5057 16.6584C81.263 16.5156 81.0775 16.4157 80.9347 16.4014Z" fill="#292F36"/>
<path d="M85.716 22.8392C86.0871 22.568 86.4725 22.2682 86.8865 21.8971C87.2434 22.4395 87.8715 23.3388 88.7708 24.6093C89.67 25.8654 90.3124 26.7504 90.6978 27.2643C90.2125 27.5498 89.7985 27.8068 89.4274 28.0637C89.1133 28.2921 88.8564 28.4919 88.6708 28.6489L88.5138 28.4348C88.9706 28.0351 89.2846 27.7068 89.4702 27.4642C89.6558 27.2215 89.7271 26.9646 89.7129 26.6933C89.6986 26.4221 89.5273 26.0938 89.2561 25.6941L88.8849 25.1802L83.4749 29.0344C83.218 29.2199 83.0324 29.3912 82.9467 29.5197C82.8611 29.6482 82.8325 29.8052 82.8896 29.9765C82.9325 30.1335 83.0609 30.3619 83.2465 30.6474L83.0609 30.7901C82.8468 30.4475 82.5185 29.9622 82.0903 29.377C81.6335 28.7346 81.2909 28.2778 81.0625 27.9923L81.2481 27.8496C81.4622 28.1208 81.6335 28.3064 81.7762 28.4063C81.919 28.5062 82.0617 28.5348 82.2187 28.4919C82.3758 28.4491 82.5899 28.3349 82.8468 28.1493L88.2569 24.2952L87.8857 23.7813C87.6002 23.3816 87.3433 23.139 87.1006 23.0248C86.858 22.9106 86.5867 22.8963 86.3013 22.9962C86.0158 23.0962 85.6018 23.2817 85.0736 23.5815L84.9166 23.3674C85.1307 23.2532 85.3877 23.0819 85.716 22.8392Z" fill="#292F36"/>
<path d="M88.4568 42.6524L88.2284 42.7237C88.1428 42.4097 88.0286 42.01 87.8573 41.5247C87.6432 40.8966 87.4719 40.4255 87.3434 40.1115L87.5718 40.0401C87.6717 40.3113 87.7859 40.5112 87.8716 40.6111C87.9715 40.711 88.1 40.7396 88.2427 40.6825C88.3712 40.6396 88.5282 40.5397 88.7138 40.3827L90.2982 39.0837L89.3989 36.4144L88.0714 36.3573C87.6432 36.3287 87.3149 36.3573 87.0865 36.4429C86.8581 36.5286 86.7153 36.657 86.6582 36.8426C86.6154 37.0282 86.644 37.2994 86.7439 37.6277L86.5155 37.6991C86.4013 37.2709 86.2585 36.8426 86.1158 36.4144C86.0016 36.0861 85.9017 35.8149 85.8018 35.6007L86.0302 35.5294C86.23 35.8719 86.6582 36.0575 87.2863 36.0718L94.8804 36.4144L94.9375 36.5857L88.8851 41.6246C88.5139 41.9814 88.3712 42.3098 88.4568 42.6524ZM93.4101 36.5857L89.6702 36.4287L90.5124 38.941L93.4101 36.5857Z" fill="#292F36"/>
<path d="M89.4993 53.5724C89.6421 53.5153 89.7134 53.4439 89.7134 53.344C89.7134 53.2869 89.6992 53.2441 89.6706 53.2013C89.6421 53.1584 89.585 53.0728 89.4993 52.9586C89.2852 52.6874 89.1282 52.4019 89.014 52.1164C88.8998 51.8309 88.8427 51.5026 88.8427 51.1457C88.8284 50.3464 88.9854 49.6612 89.2995 49.0759C89.6278 48.4907 90.0846 48.0481 90.7127 47.7341C91.3265 47.4201 92.0687 47.263 92.9395 47.2488C93.8388 47.2345 94.6239 47.3772 95.2948 47.6913C95.9657 48.0053 96.4938 48.4336 96.865 49.0045C97.2361 49.5755 97.436 50.2179 97.436 50.9316C97.436 51.2456 97.4074 51.5311 97.3503 51.7738C97.2932 52.0165 97.2076 52.2306 97.1076 52.4162C97.0077 52.6017 96.8793 52.8158 96.708 53.0442C96.6366 53.1442 96.5938 53.2298 96.5938 53.2869C96.5938 53.4297 96.8364 53.5296 97.3075 53.5724V53.8436C96.8079 53.8151 95.9086 53.8151 94.6239 53.8436V53.5724C95.0378 53.501 95.3804 53.4154 95.6516 53.3297C95.9229 53.2441 96.1513 53.1156 96.3511 52.9586C96.6223 52.7302 96.8507 52.4304 97.0077 52.0593C97.1647 51.6882 97.2361 51.317 97.2361 50.9173C97.2218 50.4034 97.0506 49.9609 96.708 49.5755C96.3654 49.1901 95.88 48.9046 95.2662 48.6905C94.6382 48.4907 93.9244 48.3907 93.0965 48.405C92.1544 48.4193 91.3978 48.5335 90.7983 48.7476C90.1988 48.9617 89.7705 49.2758 89.485 49.6897C89.1996 50.1037 89.0711 50.6318 89.0854 51.2742C89.0996 51.7453 89.2281 52.1449 89.4708 52.4875C89.5707 52.6303 89.6563 52.7159 89.7563 52.7587C89.8419 52.8016 89.9704 52.8158 90.1274 52.8158L91.2551 52.8016C91.5834 52.8016 91.8118 52.7587 91.9688 52.7016C92.1116 52.6445 92.2258 52.5304 92.2686 52.3591C92.3257 52.202 92.3542 51.9451 92.3542 51.6025H92.5826C92.5683 51.9879 92.5541 52.5304 92.5683 53.2584C92.5826 53.8008 92.5969 54.2147 92.6254 54.4717H92.397C92.3828 54.2861 92.3399 54.1577 92.2971 54.0863C92.2543 54.0149 92.1544 53.9578 92.0259 53.9293C91.8974 53.9007 91.6833 53.8864 91.3836 53.9007L89.0711 53.9435V53.7151C89.1996 53.658 89.3566 53.6295 89.4993 53.5724Z" fill="#292F36"/>
<path d="M87.8007 65.72C87.3868 65.5915 86.9014 65.463 86.3447 65.3488C86.5303 64.8492 86.8015 64.007 87.1869 62.8079C87.6437 61.3805 87.972 60.2956 88.1719 59.5676L88.4003 59.639C88.3289 59.9102 88.3003 60.1101 88.3003 60.2528C88.3146 60.3955 88.3717 60.4955 88.4859 60.5811C88.6001 60.6668 88.7999 60.7524 89.0712 60.8381L94.5954 62.5796C94.8809 62.6652 95.0807 62.708 95.2235 62.708C95.3662 62.708 95.4804 62.6509 95.5661 62.5367C95.6517 62.4225 95.7374 62.237 95.8373 61.98L96.0657 62.0514C95.8087 62.7794 95.4662 63.85 95.0094 65.2774C94.6668 66.3623 94.4241 67.1474 94.3099 67.6185C93.8389 67.4186 93.4106 67.2473 93.0109 67.1331C92.7254 67.0475 92.4828 66.9761 92.3115 66.9476L92.3971 66.6906C92.8967 66.7905 93.2822 66.8334 93.5391 66.8334C93.796 66.8334 94.0101 66.7477 94.1814 66.5764C94.3527 66.4194 94.4955 66.1339 94.624 65.7485L94.9094 64.8207C94.9951 64.5494 95.0379 64.3496 95.0236 64.2211C95.0094 64.0927 94.9665 63.9785 94.8523 63.8928C94.7382 63.8072 94.5526 63.7215 94.2671 63.6359L91.6406 62.8079L91.4122 63.5502C91.298 63.9214 91.3265 64.2069 91.5121 64.4067C91.6977 64.6065 91.8975 64.7493 92.1259 64.8492C92.3543 64.9491 92.497 65.0205 92.5541 65.049L92.4685 65.306C92.1116 65.1632 91.769 65.0348 91.4265 64.9349L90.8983 64.7778C90.5272 64.6636 89.9847 64.5066 89.2996 64.3496L89.3852 64.0927C89.4423 64.1069 89.6279 64.1355 89.9419 64.2069C90.2559 64.2639 90.5272 64.2354 90.7413 64.1212C90.9554 64.007 91.0981 63.7929 91.1981 63.4931L91.4265 62.7508L88.7428 61.9087C88.4574 61.823 88.2575 61.7802 88.1148 61.7802C87.972 61.7802 87.8578 61.8373 87.7865 61.9515C87.7008 62.0657 87.6152 62.2512 87.5295 62.5225L87.2726 63.3361C87.1298 63.8072 87.0727 64.1783 87.1298 64.4495C87.1726 64.735 87.3154 64.9634 87.5581 65.1632C87.8007 65.3488 88.1719 65.5629 88.6715 65.7913L88.5858 66.0483C88.4145 65.9198 88.1433 65.8342 87.8007 65.72Z" fill="#292F36"/>
<path d="M83.7326 83.2348C83.7897 83.1064 83.7755 82.9779 83.7184 82.8494C83.6613 82.7209 83.5185 82.5639 83.3044 82.3498L79.1077 78.3387C78.8936 78.1388 78.7223 78.0104 78.5938 77.9533C78.4653 77.8962 78.3369 77.8962 78.2084 77.9533C78.0799 78.0104 77.9229 78.1388 77.7231 78.3387L77.5518 78.1816C77.823 77.939 78.1656 77.5821 78.6081 77.1396C79.0649 76.6543 79.4074 76.2831 79.6216 76.0405L79.7929 76.1975C79.6073 76.4116 79.4931 76.5829 79.436 76.6971C79.3789 76.8256 79.3932 76.954 79.4503 77.0825C79.5074 77.211 79.6501 77.368 79.8642 77.5821L84.0609 81.5933C84.2751 81.7931 84.4464 81.9216 84.5748 81.9787C84.7033 82.0358 84.8318 82.0358 84.9602 81.9787C85.0887 81.9216 85.2457 81.7931 85.4456 81.5933L85.6169 81.7503C85.3742 81.9644 85.0173 82.3213 84.5606 82.8066C84.118 83.2634 83.7897 83.6345 83.5613 83.9057L83.39 83.7487C83.5613 83.5346 83.6755 83.3633 83.7326 83.2348Z" fill="#292F36"/>
<path d="M71.8421 91.9423C71.9277 91.8138 71.942 91.6853 71.9135 91.5283C71.8849 91.3713 71.785 91.1714 71.628 90.9002L68.0879 84.8906L68.3163 84.7479L76.3957 88.7876L73.2695 83.4775C73.1125 83.2205 72.9841 83.035 72.8556 82.935C72.7271 82.8351 72.5844 82.7923 72.4274 82.8066C72.2703 82.8208 72.0562 82.9065 71.785 83.0492L71.6565 82.8494C71.9135 82.7352 72.2561 82.5353 72.6986 82.2784C73.0983 82.0357 73.398 81.8502 73.6121 81.6931L73.7263 81.893C73.4979 82.0357 73.3409 82.1785 73.2695 82.307C73.1839 82.4354 73.1696 82.5639 73.1982 82.7209C73.2267 82.8779 73.3266 83.0778 73.4837 83.349L76.3671 88.2452C76.5099 88.5021 76.6383 88.6734 76.7525 88.759C76.8667 88.8447 76.9809 88.8875 77.1237 88.859C77.2521 88.8304 77.452 88.759 77.6947 88.6306L77.8089 88.8304C77.5805 88.9446 77.2664 89.1159 76.8525 89.3586C76.5527 89.5299 76.2957 89.7012 76.0816 89.8439L69.3012 86.4608L71.8421 90.7718C71.9991 91.0287 72.1276 91.2143 72.2561 91.3142C72.3702 91.4141 72.513 91.4569 72.6843 91.4427C72.8556 91.4284 73.0697 91.3427 73.3409 91.2L73.4551 91.3998C73.1982 91.514 72.8556 91.7139 72.4131 91.9708C72.0134 92.2135 71.7136 92.399 71.4995 92.5561L71.3853 92.3562C71.5994 92.1992 71.7564 92.0565 71.8421 91.9423Z" fill="#292F36"/>
<path d="M63.9906 93.8123C64.0906 94.2549 64.219 94.7402 64.3903 95.2541C63.748 95.3683 62.6774 95.5967 61.1643 95.9107C59.6512 96.239 58.5949 96.4817 57.9668 96.6387C57.8954 96.082 57.824 95.5967 57.7241 95.1542C57.6385 94.7687 57.5671 94.4547 57.4814 94.2263L57.7384 94.1692C57.924 94.7545 58.0953 95.1684 58.2523 95.4396C58.4093 95.7109 58.6091 95.8822 58.8661 95.9678C59.123 96.0534 59.4942 96.0392 59.9652 95.9392L60.579 95.8108L59.1801 89.3159C59.1087 89.0018 59.0374 88.7734 58.9374 88.645C58.8375 88.5165 58.7233 88.4308 58.552 88.4166C58.3807 88.388 58.1238 88.4166 57.7812 88.4737L57.7384 88.2453C58.1381 88.1882 58.7091 88.074 59.4228 87.917C60.1793 87.7457 60.7503 87.6172 61.1072 87.5173L61.15 87.7457C60.8074 87.8313 60.579 87.917 60.4363 88.0026C60.2935 88.0883 60.2079 88.2167 60.1793 88.3737C60.1508 88.5308 60.1651 88.7734 60.2364 89.0875L61.6353 95.5824L62.2491 95.4539C62.7202 95.354 63.0628 95.2112 63.2626 95.0257C63.4625 94.8401 63.5767 94.5974 63.6052 94.2977C63.6338 93.9979 63.6195 93.5411 63.5481 92.9416L63.8051 92.8845C63.8479 93.1129 63.905 93.4269 63.9906 93.8123Z" fill="#292F36"/>
<path d="M45.0487 89.8011C45.0916 89.3586 45.1058 88.859 45.1058 88.3022C45.634 88.3736 46.519 88.4593 47.7752 88.5735C49.2597 88.7019 50.3874 88.8019 51.1582 88.8447L51.144 89.0731C50.8585 89.0588 50.6586 89.0731 50.5302 89.1159C50.4017 89.1587 50.3018 89.2301 50.2447 89.3586C50.1876 89.487 50.1447 89.7012 50.1162 89.9866L49.6023 95.7678C49.5738 96.0533 49.588 96.2674 49.6166 96.4102C49.6451 96.5529 49.7308 96.6528 49.8592 96.7099C49.9877 96.767 50.1876 96.8241 50.4588 96.8527L50.4445 97.0811C49.688 96.9954 48.5603 96.8812 47.0757 96.7528C45.9337 96.6528 45.1201 96.5958 44.6348 96.5672C44.7347 96.0676 44.8061 95.6108 44.8346 95.1968C44.8632 94.8971 44.8774 94.6544 44.8632 94.4688L45.1344 94.4974C45.1486 95.0113 45.1772 95.3824 45.2486 95.6394C45.3057 95.8963 45.4341 96.0819 45.634 96.2103C45.8196 96.3388 46.1336 96.4245 46.5333 96.453L47.504 96.5386C47.7894 96.5672 47.9893 96.5529 48.1178 96.5244C48.2462 96.4958 48.3461 96.4102 48.4032 96.2817C48.4603 96.1532 48.5032 95.9391 48.5317 95.6536L48.7744 92.9129L48.0036 92.8415C47.6181 92.813 47.3469 92.8986 47.1899 93.127C47.0472 93.3554 46.933 93.5838 46.8901 93.8265C46.833 94.0692 46.8045 94.2262 46.7902 94.2975L46.519 94.269C46.5761 93.8836 46.6189 93.5267 46.6618 93.1699L46.7046 92.6132C46.7331 92.2135 46.7617 91.671 46.7902 90.9573L47.0614 90.9859C47.0614 91.043 47.0757 91.2285 47.0757 91.5568C47.09 91.8852 47.1614 92.1421 47.3327 92.3134C47.4897 92.499 47.7323 92.5989 48.0464 92.6274L48.8172 92.6988L49.0599 89.901C49.0884 89.6155 49.0741 89.4014 49.0456 89.2586C49.017 89.1302 48.9314 89.0302 48.8029 88.9732C48.6745 88.9161 48.4746 88.8732 48.2034 88.8447L47.3469 88.7733C46.8616 88.7305 46.4905 88.759 46.2192 88.8732C45.9623 88.9731 45.7625 89.173 45.6197 89.4442C45.477 89.7154 45.3628 90.1294 45.2486 90.6718L44.9774 90.6433C44.9774 90.4292 45.0059 90.1437 45.0487 89.8011Z" fill="#292F36"/>
<path d="M33.8147 84.5053C34.0288 84.4624 34.2715 84.5053 34.5284 84.6195C34.8282 84.7479 35.028 84.9335 35.1422 85.1762C35.2564 85.4331 35.2707 85.79 35.1993 86.261L34.9852 87.4316C34.9138 87.8455 34.871 88.1596 34.8567 88.4022C34.8425 88.6306 34.8996 88.8447 34.9995 89.0303C35.0994 89.2159 35.285 89.3586 35.5562 89.4728L36.584 89.901L37.626 87.4173C37.7402 87.1461 37.7973 86.9462 37.8116 86.8035C37.8258 86.6607 37.7687 86.5465 37.6688 86.4466C37.5689 86.3467 37.3976 86.2468 37.1407 86.1326L37.2263 85.9184C37.5546 86.0755 37.9971 86.2753 38.5824 86.518C39.1962 86.7749 39.6673 86.9605 39.9813 87.0604L39.8957 87.2745C39.6244 87.1746 39.4246 87.1318 39.2961 87.1175C39.1534 87.1175 39.0392 87.1603 38.9535 87.2745C38.8536 87.3745 38.7537 87.56 38.6395 87.8312L36.3984 93.1842C36.2842 93.4554 36.2271 93.6552 36.2128 93.798C36.1985 93.9407 36.2556 94.0549 36.3556 94.1549C36.4555 94.2548 36.6268 94.3547 36.8837 94.4832L36.7981 94.6973C36.4983 94.5545 36.0701 94.3547 35.4991 94.112C35.2136 93.9978 34.9138 93.8694 34.5712 93.7266C34.2287 93.5839 34.0003 93.4982 33.8718 93.4411C33.3151 93.1985 32.8726 92.9273 32.5443 92.5989C32.216 92.2706 32.0304 91.928 31.9447 91.5569C31.8591 91.1858 31.9019 90.8289 32.0589 90.472C32.1731 90.1865 32.3587 89.9296 32.6156 89.7012C32.8726 89.4728 33.2009 89.3015 33.6006 89.2159C34.0003 89.1302 34.4856 89.1445 35.0138 89.273L34.8853 89.2016C34.5855 89.016 34.3571 88.8305 34.2144 88.6306C34.0716 88.445 33.9717 88.2309 33.9432 88.0025C33.9003 87.7741 33.9146 87.4886 33.9717 87.1461L34.1716 85.9327C34.2144 85.6901 34.2429 85.5045 34.2429 85.3617C34.2429 85.219 34.2287 85.1048 34.1858 85.0192C34.143 84.9335 34.0716 84.8621 33.9717 84.8336C33.8575 84.7765 33.7433 84.7765 33.6434 84.805C33.5435 84.8336 33.4007 84.905 33.2152 85.0049L33.101 84.8193C33.3579 84.6623 33.6006 84.5481 33.8147 84.5053ZM34.5284 89.587C34.1858 89.6298 33.9146 89.7583 33.7005 89.9724C33.4864 90.1865 33.3008 90.472 33.1438 90.8432C32.9011 91.4284 32.844 91.9423 33.0011 92.3563C33.1581 92.7702 33.5435 93.1128 34.1858 93.384C34.4142 93.484 34.5855 93.5268 34.7283 93.5125C34.8567 93.5125 34.9709 93.4554 35.0709 93.3412C35.1708 93.227 35.2707 93.0414 35.3706 92.7845L36.484 90.1294L35.756 89.8297C35.285 89.6298 34.871 89.5442 34.5284 89.587Z" fill="#292F36"/>
<path d="M22.6803 86.4466C22.8088 86.4894 22.9372 86.4609 23.0514 86.3895C23.1656 86.3181 23.3226 86.1611 23.5082 85.9327L27.0911 81.3649C27.2767 81.1365 27.3909 80.9509 27.4337 80.8225C27.4765 80.694 27.4623 80.5655 27.3909 80.4513C27.3195 80.3371 27.1768 80.1801 26.9627 79.9945L27.1054 79.809C27.3766 80.0516 27.7478 80.3657 28.2474 80.7511C28.7755 81.165 29.1752 81.4648 29.4464 81.6504L29.3037 81.8359C29.0753 81.6647 28.8897 81.5647 28.7612 81.5362C28.6328 81.4934 28.5043 81.5076 28.3901 81.5933C28.2759 81.6646 28.1189 81.8217 27.9333 82.0501L24.3504 86.6179C24.1648 86.8463 24.0507 87.0319 24.0078 87.1603C23.965 87.2888 23.9793 87.4173 24.0506 87.5315C24.122 87.6457 24.2648 87.8027 24.4789 87.9883L24.3361 88.1738C24.0935 87.9597 23.7081 87.6457 23.1799 87.2174C22.6803 86.832 22.2806 86.5323 21.9951 86.3324L22.1379 86.1469C22.3805 86.3039 22.5518 86.4038 22.6803 86.4466Z" fill="#292F36"/>
<path d="M13.4586 76.2832C13.4015 75.6408 13.5442 74.9985 13.8725 74.3847C14.2151 73.7566 14.729 73.1999 15.4427 72.6717C16.1422 72.1721 16.8416 71.8438 17.5696 71.7153C18.2976 71.5869 18.9685 71.6297 19.5966 71.8723C20.2247 72.115 20.7529 72.529 21.1668 73.1142C21.6093 73.7138 21.852 74.3418 21.9091 74.9842C21.9662 75.6265 21.8234 76.2689 21.4951 76.8827C21.1525 77.5108 20.6387 78.0675 19.9249 78.5957C19.2255 79.0953 18.526 79.4236 17.798 79.552C17.0843 79.6805 16.3991 79.6377 15.771 79.395C15.143 79.1524 14.6148 78.7384 14.2008 78.1674C13.7583 77.5536 13.5157 76.9255 13.4586 76.2832ZM15.5997 78.824C16.0994 78.924 16.6703 78.8811 17.2984 78.6813C17.9265 78.4815 18.5546 78.1531 19.2112 77.6678C19.8678 77.1967 20.3817 76.6829 20.7386 76.1404C21.1097 75.598 21.3096 75.0556 21.3381 74.5417C21.3809 74.0278 21.2525 73.571 20.9812 73.1856C20.6815 72.7859 20.2961 72.529 19.7822 72.4291C19.2826 72.3291 18.7116 72.372 18.0835 72.5718C17.4554 72.7716 16.8274 73.1 16.1707 73.571C15.5141 74.0421 15.0002 74.556 14.6434 75.1127C14.2722 75.6551 14.0724 76.1833 14.0295 76.7114C13.9867 77.2253 14.1152 77.6821 14.3864 78.0675C14.6862 78.4672 15.0859 78.7241 15.5997 78.824Z" fill="#292F36"/>
<path d="M14.5577 59.0966C14.729 59.2251 14.8574 59.4392 14.9431 59.7247C15.043 60.0245 15.0287 60.31 14.9145 60.5526C14.8003 60.8096 14.5291 61.0522 14.1152 61.2949L13.0731 61.8801C12.7163 62.0943 12.445 62.2656 12.2595 62.4083C12.0739 62.5511 11.9454 62.7224 11.8741 62.9222C11.8027 63.122 11.8027 63.3504 11.8883 63.6359L12.2167 64.7065L14.7861 63.9071C15.0716 63.8215 15.2571 63.7358 15.3713 63.6502C15.4855 63.5645 15.5426 63.4504 15.5569 63.3219C15.5712 63.1934 15.5283 62.9793 15.457 62.7081L15.6854 62.6367C15.771 62.9793 15.8995 63.4646 16.0993 64.0642C16.2992 64.7065 16.4562 65.1776 16.5704 65.4773L16.342 65.5487C16.2421 65.2775 16.1564 65.0919 16.0708 64.992C15.9851 64.8921 15.8709 64.8207 15.7282 64.8207C15.5854 64.8207 15.3713 64.8493 15.1001 64.9492L9.56159 66.6621C9.2761 66.7478 9.09053 66.8334 8.97633 66.9191C8.86214 67.0047 8.80504 67.1189 8.79077 67.2474C8.77649 67.3901 8.81931 67.59 8.89069 67.8612L8.66229 67.9326C8.59092 67.6185 8.46245 67.1617 8.27688 66.5622C8.19123 66.2767 8.07704 65.9484 7.96284 65.6058C7.84865 65.2632 7.763 65.0205 7.72018 64.8921C7.53461 64.3068 7.47751 63.7929 7.52033 63.3362C7.56316 62.8794 7.7059 62.5082 7.93429 62.2085C8.16269 61.9087 8.46245 61.7089 8.83359 61.5947C9.11908 61.509 9.43312 61.4805 9.77571 61.5233C10.1183 61.5661 10.4466 61.7089 10.7892 61.9658C11.1318 62.2227 11.4173 62.5939 11.6599 63.0935L11.6457 62.9507C11.6028 62.5939 11.5886 62.3084 11.6457 62.0657C11.7028 61.8231 11.8027 61.6232 11.9454 61.4519C12.1025 61.2806 12.3308 61.0951 12.6306 60.9238L13.6869 60.2957C13.901 60.1815 14.0723 60.0673 14.1723 59.9816C14.2722 59.896 14.3578 59.8103 14.4007 59.7247C14.4435 59.639 14.4435 59.5391 14.4149 59.4392C14.3721 59.3107 14.315 59.2251 14.2294 59.168C14.1437 59.1109 14.001 59.0395 13.8011 58.9681L13.8725 58.754C14.158 58.854 14.4007 58.9681 14.5577 59.0966ZM11.1461 62.9222C10.9034 62.6938 10.6179 62.5653 10.3181 62.5368C10.0184 62.5082 9.67579 62.5511 9.29037 62.6795C8.67657 62.8651 8.26261 63.1649 8.03421 63.5503C7.80582 63.9357 7.80582 64.4638 8.00567 65.1062C8.07704 65.3346 8.16269 65.5059 8.24833 65.6058C8.33398 65.7057 8.46245 65.7628 8.6052 65.7628C8.74794 65.7628 8.96206 65.72 9.219 65.6486L11.9597 64.7922L11.7313 64.0356C11.5886 63.5217 11.3887 63.1506 11.1461 62.9222Z" fill="#292F36"/>
<path d="M13.4587 45.5501C14.0012 45.3074 14.3295 44.8506 14.4722 44.1655C14.5151 43.9085 14.5151 43.6516 14.4437 43.4089C14.3723 43.1662 14.2438 42.9521 14.044 42.7666C13.8442 42.581 13.5729 42.4525 13.2161 42.3954C12.9163 42.3383 12.6451 42.3669 12.3882 42.4668C12.1312 42.5667 11.8743 42.7237 11.6316 42.9379C11.3889 43.152 11.1035 43.4375 10.7894 43.7943C10.4325 44.194 10.1185 44.5223 9.84729 44.7507C9.57608 44.9934 9.27631 45.1647 8.948 45.2932C8.61968 45.4216 8.24854 45.4359 7.83458 45.3645C7.40635 45.2789 7.04948 45.1219 6.79254 44.8649C6.5356 44.608 6.35003 44.3082 6.26438 43.9513C6.17874 43.5945 6.17874 43.2233 6.25011 42.8237C6.29293 42.581 6.35003 42.3954 6.4214 42.2241C6.49278 42.0528 6.56415 41.9244 6.6498 41.8244C6.73544 41.7245 6.82109 41.6103 6.93529 41.4961C7.07803 41.3391 7.1494 41.2249 7.17795 41.1393C7.19223 41.0679 7.16368 41.0108 7.09231 40.9537C7.02093 40.8966 6.89246 40.8538 6.72117 40.7967L6.76399 40.5397C7.2065 40.6539 7.97733 40.8252 9.10502 41.0393L9.06219 41.2963C8.66251 41.2535 8.29137 41.2677 7.92023 41.3534C7.56337 41.4248 7.24933 41.5818 6.99238 41.8244C6.73544 42.0528 6.56415 42.3811 6.49278 42.7808C6.43568 43.0521 6.44995 43.2947 6.52133 43.5374C6.5927 43.7801 6.72117 43.9656 6.89246 44.1226C7.07803 44.2797 7.29215 44.3796 7.54909 44.4367C7.96305 44.5081 8.31992 44.451 8.61968 44.2511C8.91945 44.0513 9.20494 43.7943 9.47615 43.4946C9.74737 43.1948 9.91867 42.995 10.0186 42.895C10.4183 42.4668 10.7466 42.1385 11.0178 41.8958C11.289 41.6531 11.5888 41.4819 11.9171 41.3677C12.2454 41.2535 12.6023 41.2392 12.9877 41.3106C13.4587 41.3962 13.8442 41.5818 14.1297 41.853C14.4151 42.1385 14.6007 42.4668 14.7006 42.8665C14.8006 43.2662 14.8006 43.6944 14.7149 44.1512C14.6435 44.5223 14.5579 44.8078 14.4294 45.0362C14.3152 45.2646 14.1582 45.4644 13.9869 45.65C13.8442 45.807 13.7728 45.9212 13.7442 46.0069C13.73 46.0783 13.7585 46.1354 13.8299 46.1925C13.9013 46.2495 14.0297 46.3066 14.201 46.3495L14.1582 46.6064C13.7442 46.4922 12.8307 46.3066 11.4175 46.0497L11.4603 45.7928C12.2597 45.8641 12.9163 45.7928 13.4587 45.5501Z" fill="#292F36"/>
<path d="M10.6321 33.5165C10.2324 33.3024 9.7756 33.1026 9.26172 32.9027C9.57576 32.346 10.1039 31.3754 10.8176 29.9907C11.5314 28.6204 12.031 27.6497 12.3022 27.0645C12.7733 27.3642 13.2015 27.6212 13.5869 27.821C13.9295 28.0066 14.2293 28.135 14.4577 28.235L14.3292 28.4776C13.7582 28.2492 13.33 28.1065 13.0302 28.0637C12.7304 28.0066 12.4592 28.0637 12.2308 28.2064C12.0024 28.3492 11.774 28.6347 11.5599 29.0629L11.2744 29.6339L17.1698 32.7029C17.4553 32.8599 17.6837 32.9313 17.8407 32.9456C17.9977 32.9598 18.1405 32.917 18.269 32.8028C18.3974 32.6886 18.5402 32.4745 18.7115 32.1747L18.9256 32.2889C18.7115 32.6458 18.4402 33.1454 18.0977 33.802C17.7408 34.4872 17.4839 35.0154 17.3268 35.3437L17.1127 35.2295C17.2555 34.9154 17.3554 34.6728 17.3697 34.5158C17.3982 34.3445 17.3554 34.2017 17.2412 34.0733C17.127 33.9448 16.9414 33.8163 16.6559 33.6593L10.7605 30.576L10.4608 31.1327C10.2324 31.5609 10.1325 31.9035 10.1467 32.1747C10.161 32.446 10.2752 32.6886 10.4893 32.9027C10.7034 33.1169 11.0603 33.4023 11.5742 33.7307L11.4457 33.9733C11.2602 33.8591 10.9747 33.7021 10.6321 33.5165Z" fill="#292F36"/>
<path d="M20.7105 17.1153C20.9531 16.8726 21.153 16.6442 21.2957 16.4729L21.467 16.6442C21.3814 16.7727 21.3385 16.9582 21.3528 17.1724C21.3671 17.3865 21.4242 17.6862 21.5384 18.0431L22.8374 21.9115L24.3505 23.4103C24.5646 23.6102 24.7216 23.7529 24.8501 23.81C24.9786 23.8671 25.107 23.8671 25.2355 23.81C25.364 23.7529 25.521 23.6244 25.7351 23.4389L25.9064 23.6102C25.6352 23.8528 25.2783 24.1954 24.8358 24.6379C24.3648 25.109 24.0222 25.4801 23.808 25.7228L23.6368 25.5515C23.8223 25.3374 23.9508 25.1804 24.0079 25.0519C24.065 24.9234 24.065 24.795 23.9936 24.6665C23.9365 24.538 23.7938 24.3667 23.5939 24.1669L22.3378 22.925L17.5701 21.5261C17.2846 21.4404 17.0705 21.4119 16.9277 21.4262C16.785 21.4404 16.685 21.4833 16.6137 21.5546L16.4424 21.3833C16.6708 21.1835 16.9277 20.9551 17.1847 20.6839C17.7128 20.1415 18.0982 19.756 18.3123 19.4991L18.4836 19.6704C18.0982 20.0558 18.0126 20.3556 18.2267 20.5697C18.3123 20.6553 18.4265 20.7124 18.5978 20.7695L22.609 22.0114L21.5527 18.8567C21.3956 18.4 21.2386 18.0859 21.0673 17.9289C20.9103 17.7719 20.739 17.7291 20.5534 17.7862C20.3679 17.8433 20.1538 17.986 19.8968 18.2287L19.7255 18.0574C20.0681 17.7433 20.3822 17.4293 20.7105 17.1153Z" fill="#292F36"/>
<path d="M29.346 11.3626C29.2603 11.4625 29.2175 11.591 29.246 11.7337C29.2746 11.8765 29.346 12.0763 29.4887 12.3333L32.2437 17.4436C32.3864 17.7005 32.5006 17.8718 32.6148 17.9717C32.7148 18.0716 32.8432 18.1002 32.9717 18.0859C33.1002 18.0716 33.3 17.986 33.5427 17.8575L34.2992 17.4436C34.7275 17.2152 35.0272 16.9725 35.1843 16.7298C35.3413 16.4872 35.3984 16.2159 35.3555 15.8876C35.3127 15.5593 35.1843 15.1454 34.9559 14.6029L35.1985 14.4745C35.2984 14.7028 35.4412 14.9883 35.6268 15.3309C35.8409 15.7163 36.0978 16.1446 36.4119 16.6156C35.9408 16.844 35.1414 17.258 34.0423 17.8575C32.729 18.5712 31.7298 19.1137 31.0732 19.4991L30.959 19.2992C31.2017 19.1565 31.373 19.028 31.4586 18.9281C31.5442 18.8282 31.5871 18.6997 31.5585 18.557C31.53 18.4142 31.4586 18.2144 31.3159 17.9574L28.5323 12.8472C28.3896 12.5902 28.2754 12.4189 28.1612 12.319C28.0613 12.2191 27.9328 12.1905 27.8043 12.2048C27.6616 12.2191 27.476 12.2905 27.2191 12.4189L27.1191 12.2048C27.4189 12.0763 27.8614 11.8479 28.4467 11.5196C29.0034 11.2199 29.4316 10.9772 29.7314 10.7916L29.8456 10.9915C29.6029 11.1342 29.4459 11.2627 29.346 11.3626Z" fill="#292F36"/>
<path d="M46.7328 12.276C46.8185 12.7043 46.9469 13.1896 47.104 13.732C46.5758 13.8177 45.7051 13.9747 44.4774 14.2174C43.0072 14.5029 41.908 14.7313 41.1515 14.9026L41.1087 14.6742C41.3799 14.6028 41.5797 14.5457 41.6939 14.46C41.8081 14.3887 41.8795 14.2745 41.8938 14.146C41.908 14.0033 41.8938 13.7891 41.8367 13.5037L40.7232 7.80811C40.6661 7.52262 40.6091 7.32278 40.5234 7.19431C40.4378 7.06584 40.3521 6.99446 40.2094 6.98019C40.0809 6.95164 39.8668 6.96591 39.5956 7.00874L39.5527 6.78034C40.3093 6.65187 41.4227 6.45203 42.8787 6.16654C44.0064 5.93815 44.8058 5.78113 45.2625 5.66693C45.3054 6.18081 45.3767 6.6376 45.4481 7.03729C45.5052 7.33705 45.5623 7.56544 45.6194 7.73674L45.3625 7.79384C45.2055 7.3085 45.0627 6.95164 44.9342 6.72325C44.8058 6.49485 44.6202 6.35211 44.4061 6.28074C44.1777 6.20936 43.8779 6.20936 43.464 6.29501L42.5076 6.48058C42.2363 6.53768 42.0365 6.59478 41.9223 6.66615C41.8081 6.73752 41.7367 6.83744 41.7082 6.98019C41.6939 7.12293 41.7082 7.33705 41.7653 7.62254L42.2934 10.3347L43.05 10.1777C43.4354 10.1063 43.6638 9.93502 43.7494 9.67808C43.8351 9.42113 43.8636 9.17847 43.8494 8.9358C43.8351 8.69313 43.8208 8.53611 43.8208 8.46474L44.0778 8.40764C44.1206 8.79305 44.1777 9.14992 44.2491 9.49251L44.3633 10.0349C44.4346 10.4204 44.5631 10.9628 44.7487 11.648L44.4917 11.7051C44.4774 11.648 44.4204 11.4767 44.3204 11.1626C44.2205 10.8486 44.0778 10.6345 43.8636 10.506C43.6495 10.3775 43.4069 10.349 43.0928 10.4061L42.3363 10.5488L42.8787 13.3038C42.9358 13.5893 42.9929 13.7891 43.0643 13.9176C43.1356 14.0318 43.2356 14.1032 43.3783 14.1317C43.5068 14.146 43.7209 14.1317 43.9921 14.0746L44.8343 13.9033C45.3054 13.8034 45.6622 13.6749 45.8906 13.5037C46.119 13.3324 46.2475 13.0897 46.3046 12.7899C46.3617 12.4902 46.3617 12.0619 46.3189 11.5052L46.5758 11.4481C46.6186 11.6622 46.6615 11.9335 46.7328 12.276Z" fill="#292F36"/>
<path d="M37.1113 66.7905C36.4547 65.9055 35.8837 64.9348 35.3841 63.8642C34.8845 62.7936 34.4848 61.7088 34.185 60.5954C33.5284 55.6992 33.5141 50.9458 34.1279 46.3351C34.7417 41.7244 35.7409 37.1851 37.1113 32.7029C37.3397 32.2033 37.8393 31.9606 38.6101 31.9606C39.381 31.9606 40.1375 32.1319 40.9083 32.4745C41.6792 32.8171 42.3072 33.2739 42.8068 33.8449C43.3065 34.4159 43.4207 35.0154 43.1494 35.6292C42.7212 36.5428 42.3072 37.7847 41.8933 39.3263C41.4793 40.8822 41.0654 42.5952 40.6942 44.4651C40.3088 46.3351 39.9805 48.305 39.695 50.3463C39.4095 52.3875 39.1954 54.3574 39.0669 56.2274C38.9384 58.0973 38.9099 59.796 38.9813 61.3091C39.0526 62.8222 39.281 64.0213 39.6664 64.892C41.465 62.4796 43.1066 59.9816 44.6054 57.3979C46.1043 54.8142 47.5032 52.2019 48.8164 49.5326C50.1297 46.8775 51.3858 44.1939 52.5706 41.4675C53.7554 38.7553 54.9259 36.0717 56.0679 33.4309C56.6389 32.0891 57.2099 30.6759 57.7666 29.1914C58.3233 27.6926 59.0513 26.4221 59.9791 25.3515C60.3645 25.0089 60.6643 24.8948 60.8641 25.0089C61.0782 25.1231 61.221 25.3373 61.2924 25.6656C61.3637 25.9939 61.4066 26.3365 61.4066 26.6933C61.4066 27.0502 61.4066 27.3357 61.4066 27.5213C61.1353 29.277 60.907 31.0185 60.7214 32.7457C60.5358 34.473 60.1219 36.1288 59.5223 37.7418C58.5231 40.2684 57.5096 42.7665 56.4533 45.2645C55.397 47.7483 54.2693 50.2035 53.0702 52.6159C51.8712 55.0283 50.5579 57.3693 49.1733 59.639C47.7744 61.9229 46.2613 64.0926 44.6054 66.1482C43.3065 67.7897 42.0075 68.6605 40.737 68.7604C39.4095 68.8746 38.2247 68.2037 37.1113 66.7905Z" fill="#292F36" stroke="white" stroke-miterlimit="10"/>
<path d="M60.75 60.3099C59.9792 59.2393 59.2226 58.1544 58.4804 57.041C57.7381 55.9276 57.3669 54.7143 57.3669 53.3725C57.3669 51.8879 57.7952 50.4747 58.6516 49.1472C59.5081 47.834 60.4931 46.7634 61.6065 45.964C62.0633 45.6642 62.5343 45.4073 63.0054 45.2217C63.4764 45.0361 63.9903 45.0504 64.5328 45.2788C64.7611 45.393 65.0038 45.4787 65.2465 45.5358C65.4891 45.5929 65.7175 45.6642 65.9031 45.7356C66.0887 45.807 66.3028 45.9212 66.5312 46.0782C66.7596 46.2352 66.8738 46.4351 66.8738 46.7063C66.8738 47.7769 66.9023 48.6476 66.9594 49.3185C67.0165 49.9894 67.1022 50.5604 67.2164 51.0457C67.3306 51.5311 67.4448 51.945 67.559 52.3019C67.6732 52.673 67.7873 53.0584 67.9015 53.4724C67.9729 53.8578 67.9586 54.1861 67.8444 54.4431C67.7303 54.7143 67.4448 54.7428 66.988 54.5573C66.1458 54.2575 65.5177 53.6437 65.118 52.7158C64.7183 51.788 64.4186 50.9601 64.233 50.1893C64.1902 50.0322 64.1045 49.7753 63.9475 49.3899C63.7905 49.0045 63.7048 48.7333 63.662 48.5905C63.3622 48.5191 62.9911 48.6191 62.5771 48.9045C62.1632 49.19 61.7778 49.5897 61.4637 50.0751C61.1354 50.5747 60.9213 51.1456 60.8356 51.8023C60.7357 52.4589 60.8642 53.1013 61.2068 53.7579C61.3638 53.9863 61.5779 54.2718 61.8634 54.5858C62.1489 54.9141 62.4344 55.2424 62.7199 55.585C63.0054 55.9276 63.2909 56.2702 63.5764 56.5842C63.8619 56.8983 64.1045 57.1695 64.2901 57.3551C64.5185 57.5835 64.6755 57.7119 64.7469 57.7262C64.8182 57.7405 65.0181 57.6977 65.3179 57.5835C65.7033 57.3979 66.2885 57.141 67.0736 56.8412C67.8587 56.5414 68.6866 56.2274 69.5431 55.9276C70.3996 55.6279 71.2275 55.3709 72.0126 55.1568C72.7977 54.9427 73.3972 54.8427 73.8255 54.8427C74.0967 54.8427 74.2823 54.9427 74.3965 55.1282C74.5107 55.2424 74.4964 55.3995 74.3394 55.585C74.1823 55.7706 73.9825 55.9704 73.7398 56.156C73.4972 56.3416 73.2259 56.5129 72.969 56.6699C72.6978 56.8269 72.5265 56.9126 72.4551 56.9554C71.7985 57.3408 70.9848 57.769 69.9856 58.2544C68.9864 58.7254 68.1299 59.1965 67.4019 59.6533C67.3306 59.7246 67.1878 59.8103 66.9737 59.8817C66.7596 59.953 66.6026 60.0387 66.4884 60.1101C66.9452 61.1378 67.2735 62.0371 67.459 62.7794C67.6446 63.5217 67.716 64.2354 67.6589 64.9348C67.6018 65.62 67.459 66.3195 67.2306 67.0332C67.0023 67.7469 66.6882 68.5606 66.3171 69.4741C65.7746 70.3592 65.2322 71.2014 64.6755 72.0007C64.1188 72.8001 63.505 73.5281 62.8055 74.1847C62.1204 74.8414 61.3638 75.3553 60.5644 75.7264C59.7651 76.1118 58.88 76.2974 57.9236 76.2974C57.3812 76.2974 56.8673 76.226 56.3677 76.0975C55.8681 75.9691 55.4541 75.6836 55.1116 75.2696C54.2265 74.3132 53.7412 73.2712 53.627 72.1435C53.5128 71.0158 53.6127 69.9024 53.9125 68.789C54.1409 68.1038 54.4264 67.4757 54.769 66.8905C55.6112 65.4345 56.539 64.2068 57.5525 63.1934C58.5803 62.1941 59.6366 61.2235 60.75 60.3099ZM62.7056 62.8936C62.2774 63.3218 61.7064 63.9214 60.9784 64.7065C60.2504 65.4916 59.5795 66.348 58.9371 67.2616C58.3091 68.1752 57.7952 69.0887 57.3955 69.988C56.9958 70.8873 56.8959 71.6582 57.0814 72.3148C57.8523 71.9722 58.6374 71.4012 59.4367 70.6161C60.2361 69.831 60.9498 68.9745 61.5637 68.0324C62.1775 67.0903 62.6057 66.1625 62.8484 65.2489C63.091 64.321 63.0482 63.5359 62.7056 62.8936Z" fill="#292F36" stroke="white" stroke-miterlimit="10"/>
<path d="M51.4436 83.5489C33.5862 83.5489 19.0547 69.0174 19.0547 51.16C19.0547 33.3025 33.5862 18.7711 51.4436 18.7711C69.3011 18.7711 83.8325 33.3025 83.8325 51.16C83.8325 69.0174 69.3011 83.5489 51.4436 83.5489ZM51.4436 20.1985C34.3713 20.1985 20.4821 34.0876 20.4821 51.16C20.4821 68.2323 34.3713 82.1214 51.4436 82.1214C68.516 82.1214 82.4051 68.2323 82.4051 51.16C82.4051 34.0876 68.516 20.1985 51.4436 20.1985Z" fill="#292F36"/>
</svg>
